<?xml version="1.0" encoding="UTF-8"?>
<!DOCTYPE svg PUBLIC "-//W3C//DTD SVG 1.1//EN" "http://www.w3.org/Graphics/SVG/1.1/DTD/svg11.dtd">
<svg xmlns="http://www.w3.org/2000/svg" version="1.1" width="3894px" height="660px" style="shape-rendering:geometricPrecision; text-rendering:geometricPrecision; image-rendering:optimizeQuality; fill-rule:evenodd; clip-rule:evenodd" xmlns:xlink="http://www.w3.org/1999/xlink">
<g><path style="opacity:0.974" fill="#FFFFFF" d="M 1778.5,25.5 C 1789.51,25.3335 1800.51,25.5002 1811.5,26C 1812.7,26.9025 1813.53,28.0692 1814,29.5C 1814.67,166.833 1814.67,304.167 1814,441.5C 1807.69,519.463 1767.19,569.629 1692.5,592C 1646.88,602.506 1603.21,597.173 1561.5,576C 1506.04,541.771 1479.04,491.771 1480.5,426C 1478.57,376.079 1494.91,333.412 1529.5,298C 1562.11,269.457 1600.27,255.291 1644,255.5C 1683.92,254.674 1719.42,266.507 1750.5,291C 1760.16,299.321 1768.33,308.821 1775,319.5C 1775.33,222.5 1775.67,125.5 1776,28.5C 1776.7,27.3094 1777.53,26.3094 1778.5,25.5 Z M 1631.5,291.5 C 1656.66,289.519 1680.99,293.019 1704.5,302C 1735.97,317.082 1757.14,341.249 1768,374.5C 1778.76,411.496 1777.76,448.163 1765,484.5C 1747.38,526.11 1716.21,550.61 1671.5,558C 1634.13,564.057 1599.79,556.723 1568.5,536C 1542.51,514.966 1527.01,487.799 1522,454.5C 1516.79,421.451 1520.45,389.451 1533,358.5C 1553.5,318.185 1586.33,295.851 1631.5,291.5 Z"/></g>
<g><path style="opacity:0.882" fill="#FFFFFF" d="M 472.5,53.5 C 470.738,53.6427 469.071,53.3094 467.5,52.5C 466.571,53.6888 466.238,55.0222 466.5,56.5C 462.517,56.1492 458.517,55.8159 454.5,55.5C 454.719,54.325 454.386,53.325 453.5,52.5C 451.667,53.0521 450,53.8855 448.5,55C 451.686,58.6902 455.686,60.8569 460.5,61.5C 462.088,60.9904 463.255,59.9904 464,58.5C 467.598,62.1561 471.098,65.9894 474.5,70C 477.478,71.8824 480.645,73.3824 484,74.5C 484.667,73.1667 484.667,71.8333 484,70.5C 480.961,67.8974 477.461,66.2308 473.5,65.5C 472.289,64.7261 472.289,63.8928 473.5,63C 481.89,62.6866 489.057,65.5199 495,71.5C 495.684,72.7839 495.517,73.9505 494.5,75C 507.951,80.2387 519.617,88.2387 529.5,99C 532.486,98.8724 535.486,98.8724 538.5,99C 545.183,105.018 551.183,111.685 556.5,119C 559.911,121.703 563.411,124.203 567,126.5C 568.5,128.667 570,130.833 571.5,133C 571.167,133.333 570.833,133.667 570.5,134C 573.92,135.751 576.254,138.418 577.5,142C 579.65,143.411 581.984,144.245 584.5,144.5C 584.833,146.5 585.167,148.5 585.5,150.5C 586.873,150.343 588.207,150.51 589.5,151C 593.514,153.592 597.014,156.758 600,160.5C 600.167,161 600.333,161.5 600.5,162C 596.171,165.439 595.005,169.606 597,174.5C 598.587,173.273 599.921,173.606 601,175.5C 603.742,181.932 607.742,187.599 613,192.5C 614.202,194.677 614.702,197.011 614.5,199.5C 617.777,199.216 620.943,199.549 624,200.5C 622.873,204.013 623.373,207.347 625.5,210.5C 625.291,211.086 624.957,211.586 624.5,212C 627.912,220.571 630.745,229.404 633,238.5C 637.842,241.058 638.676,244.558 635.5,249C 640.368,250.36 642.701,253.526 642.5,258.5C 644.467,258.261 646.301,258.594 648,259.5C 646.398,262.525 645.731,265.858 646,269.5C 647.093,271.349 648.426,273.016 650,274.5C 650.108,278.177 650.108,281.843 650,285.5C 658.21,293.963 660.044,303.629 655.5,314.5C 658.066,332.981 657.399,350.981 653.5,368.5C 655.406,372.569 654.739,376.403 651.5,380C 652.602,382.401 652.769,384.901 652,387.5C 650.795,388.071 649.628,388.738 648.5,389.5C 649.833,390.5 649.833,391.5 648.5,392.5C 647.335,393.584 646.002,394.417 644.5,395C 645.554,396.388 645.72,397.888 645,399.5C 643.151,401.047 641.651,402.881 640.5,405C 641.167,405.667 641.833,406.333 642.5,407C 639.902,409.09 637.902,411.59 636.5,414.5C 634.247,412.55 633.914,410.216 635.5,407.5C 634.998,406.479 634.332,406.312 633.5,407C 630.318,410.349 626.985,413.516 623.5,416.5C 624.348,418.409 624.682,420.409 624.5,422.5C 621.116,423.244 620.782,424.577 623.5,426.5C 623.5,427.167 623.833,427.5 624.5,427.5C 624.5,428.167 624.5,428.833 624.5,429.5C 625.5,429.167 626.167,428.5 626.5,427.5C 628.106,426.22 629.106,426.72 629.5,429C 628.209,431.05 627.709,433.217 628,435.5C 632.876,432.638 636.209,428.638 638,423.5C 643.632,419.244 646.965,413.577 648,406.5C 652.371,400.07 655.705,393.07 658,385.5C 658.833,384.667 659.667,383.833 660.5,383C 659.565,380.619 659.232,378.119 659.5,375.5C 660.833,375.5 662.167,375.5 663.5,375.5C 663.714,373.856 663.38,372.356 662.5,371C 664.316,369.685 665.983,368.185 667.5,366.5C 666.833,365.833 666.167,365.167 665.5,364.5C 667.13,361.724 667.797,358.724 667.5,355.5C 668.675,355.719 669.675,355.386 670.5,354.5C 669.572,353.232 669.405,351.899 670,350.5C 671.984,348.433 673.151,345.933 673.5,343C 674.098,341.699 675.098,340.865 676.5,340.5C 677.147,337.546 677.314,334.546 677,331.5C 678.528,329.092 680.028,326.758 681.5,324.5C 682.696,325.559 683.363,326.893 683.5,328.5C 682.764,333.095 681.764,337.595 680.5,342C 683.579,346.03 682.579,348.863 677.5,350.5C 676.756,351.991 676.09,353.491 675.5,355C 676.448,355.483 677.448,355.649 678.5,355.5C 678.5,357.167 678.5,358.833 678.5,360.5C 674.205,360.279 673.538,361.612 676.5,364.5C 675.833,365.5 675.167,366.5 674.5,367.5C 676.012,368.249 677.012,369.416 677.5,371C 676.233,374.773 675.233,378.607 674.5,382.5C 672.662,383.189 670.995,383.522 669.5,383.5C 672.311,387.318 671.978,390.818 668.5,394C 668.833,394.333 669.167,394.667 669.5,395C 667.98,397.596 667.147,400.429 667,403.5C 665.5,407.07 664,410.57 662.5,414C 664.037,415.11 664.703,416.61 664.5,418.5C 662.856,418.714 661.356,418.38 660,417.5C 660.809,419.867 661.975,422.2 663.5,424.5C 663.281,426.915 661.948,427.915 659.5,427.5C 659.5,429.167 659.5,430.833 659.5,432.5C 654.968,432.808 653.968,434.641 656.5,438C 656.37,439.059 655.87,439.892 655,440.5C 652.262,437.689 649.762,437.856 647.5,441C 648.09,442.509 648.756,444.009 649.5,445.5C 651.032,442.25 652.866,441.916 655,444.5C 653.575,447.532 652.741,450.865 652.5,454.5C 650.833,454.5 649.167,454.5 647.5,454.5C 647.785,456.288 647.452,457.955 646.5,459.5C 645.28,460.711 644.113,460.711 643,459.5C 642.5,460 642,460.5 641.5,461C 646.924,464.152 646.591,466.652 640.5,468.5C 640.931,469.293 641.265,470.127 641.5,471C 639.899,474.249 639.066,477.749 639,481.5C 636.515,483.666 636.015,486.332 637.5,489.5C 633.753,489.609 631.753,491.609 631.5,495.5C 630.758,496.287 629.925,496.953 629,497.5C 628.68,500.54 628.68,503.54 629,506.5C 627.316,508.351 625.483,510.018 623.5,511.5C 622.032,509.667 620.365,509.334 618.5,510.5C 619.42,512.786 619.42,515.119 618.5,517.5C 616.833,517.5 615.167,517.5 613.5,517.5C 613.875,514.603 613.375,511.937 612,509.5C 612.482,512.76 612.482,516.093 612,519.5C 610.713,522.145 608.547,523.145 605.5,522.5C 606.244,525.95 604.91,527.616 601.5,527.5C 602.093,530.596 601.093,532.929 598.5,534.5C 597.571,535.689 597.238,537.022 597.5,538.5C 595,537.877 592.5,537.543 590,537.5C 587.088,542.748 582.921,546.581 577.5,549C 578.818,552.537 577.485,554.371 573.5,554.5C 573.5,555.833 573.5,557.167 573.5,558.5C 571.712,558.215 570.045,558.548 568.5,559.5C 568.003,562.55 566.503,563.55 564,562.5C 563.727,564.329 562.893,565.829 561.5,567C 556.754,569.27 551.754,570.437 546.5,570.5C 546.6,578.484 542.6,581.484 534.5,579.5C 534.54,582.425 533.707,585.091 532,587.5C 531.259,588.641 530.425,588.641 529.5,587.5C 526.366,589.644 524.533,592.644 524,596.5C 522.325,597.595 521.158,599.095 520.5,601C 519.216,601.684 518.049,601.517 517,600.5C 513.426,606.058 508.759,607.058 503,603.5C 501.779,604.272 500.779,605.272 500,606.5C 499.83,608.715 499.163,610.715 498,612.5C 493.687,611.543 489.354,610.543 485,609.5C 484.51,610.793 484.343,612.127 484.5,613.5C 479.23,612.321 475.23,614.154 472.5,619C 469.766,619.21 467.266,620.044 465,621.5C 462.422,620.019 459.756,618.686 457,617.5C 454.23,618.348 451.397,618.681 448.5,618.5C 448.898,623.463 447.231,624.463 443.5,621.5C 440.58,624.923 437.413,625.256 434,622.5C 432.89,624.037 431.39,624.703 429.5,624.5C 429.5,623.5 429.5,622.5 429.5,621.5C 427.066,623.374 424.232,624.707 421,625.5C 418.084,623.006 415.084,623.006 412,625.5C 407.977,623.242 404.477,624.076 401.5,628C 397.683,629.023 394.183,628.523 391,626.5C 390.161,627.624 388.994,628.291 387.5,628.5C 385.528,627.843 383.695,627.843 382,628.5C 378.796,626.258 375.296,625.924 371.5,627.5C 367.514,626.89 363.514,626.39 359.5,626C 358.667,625.167 357.833,624.333 357,623.5C 356.653,625.18 355.653,626.18 354,626.5C 349.873,625.761 345.706,625.261 341.5,625C 341.002,623.842 340.169,623.009 339,622.5C 336.667,623.5 334.333,624.5 332,625.5C 326.601,622.343 320.767,621.343 314.5,622.5C 285.215,617.123 258.382,605.789 234,588.5C 202.217,575.844 173.384,558.511 147.5,536.5C 139.185,527.017 130.685,517.684 122,508.5C 118.612,504.391 116.279,499.725 115,494.5C 111.333,490.167 107.667,485.833 104,481.5C 99.8698,481.413 95.7031,481.413 91.5,481.5C 93.4374,482.744 95.1041,484.244 96.5,486C 95.9019,487.301 94.9019,488.135 93.5,488.5C 91.5029,487.253 89.5029,486.419 87.5,486C 91.0033,493.164 89.0033,495.164 81.5,492C 77.3768,489.066 74.7102,485.232 73.5,480.5C 75.4672,480.261 77.3005,480.594 79,481.5C 81.1335,479.862 83.6335,479.029 86.5,479C 84.1367,478.411 83.1367,476.911 83.5,474.5C 89.917,475.594 96.2503,476.76 102.5,478C 98.5414,471.917 94.7081,465.751 91,459.5C 90.6667,459.833 90.3333,460.167 90,460.5C 89.0918,457.257 87.0918,454.923 84,453.5C 83.9298,448.772 83.0965,444.106 81.5,439.5C 78.732,436.062 76.232,432.395 74,428.5C 72.9887,427.663 71.8221,427.33 70.5,427.5C 70.067,424.834 69.567,422.168 69,419.5C 66.2595,423.651 64.7595,423.318 64.5,418.5C 65.0688,414.866 66.0688,411.366 67.5,408C 66.0789,405.139 65.0789,402.139 64.5,399C 65.1667,398.333 65.8333,397.667 66.5,397C 65.1059,396.044 64.4393,394.711 64.5,393C 64.2096,388.844 64.5429,384.844 65.5,381C 64.5838,380.626 63.7504,380.126 63,379.5C 62.835,376.019 62.6684,372.686 62.5,369.5C 62.9228,366.892 63.9228,364.558 65.5,362.5C 65.594,357.552 63.7606,353.552 60,350.5C 59.1922,348.577 58.6922,346.577 58.5,344.5C 61.1192,331.615 62.2858,318.615 62,305.5C 60.8147,303.623 59.8147,301.623 59,299.5C 58.3902,290.258 56.8902,281.258 54.5,272.5C 54.8182,269.044 55.6516,265.711 57,262.5C 58.2635,260.393 60.0968,259.393 62.5,259.5C 62.5,260.5 62.5,261.5 62.5,262.5C 63.675,262.719 64.675,262.386 65.5,261.5C 65.0465,258.274 65.0465,254.94 65.5,251.5C 67.7759,250.787 70.1093,250.287 72.5,250C 74.9734,248.258 74.9734,246.425 72.5,244.5C 72.6667,243.833 72.8333,243.167 73,242.5C 77.2724,241.653 79.4391,238.987 79.5,234.5C 78.5331,232.238 77.8664,229.905 77.5,227.5C 79.3588,227.539 80.6921,226.706 81.5,225C 80.2068,224.51 78.8734,224.343 77.5,224.5C 77.281,223.325 77.6143,222.325 78.5,221.5C 84.3292,219.343 87.9959,215.343 89.5,209.5C 86.3294,209.213 84.3294,207.546 83.5,204.5C 84.6053,203.108 85.9386,201.941 87.5,201C 86.9781,200.439 86.6448,199.772 86.5,199C 88.2331,196.924 89.5665,194.591 90.5,192C 91.0836,187.746 92.417,183.746 94.5,180C 93.4764,177.822 93.6431,175.655 95,173.5C 98.0595,170.048 100.06,166.048 101,161.5C 104.572,159.619 106.572,156.619 107,152.5C 109.796,150.285 110.796,147.619 110,144.5C 114.592,136.239 120.926,129.573 129,124.5C 128.695,122.557 128.695,120.557 129,118.5C 132.007,116.914 134.507,114.747 136.5,112C 141.048,110.765 144.214,107.932 146,103.5C 153.802,98.1111 160.635,91.6111 166.5,84C 168.456,84.2218 170.29,85.0552 172,86.5C 174.068,84.4385 176.568,83.2718 179.5,83C 182,79.8333 184.833,77 188,74.5C 187.705,70.639 189.205,69.3057 192.5,70.5C 198.48,68.5619 204.48,66.7286 210.5,65C 212.412,62.2119 215.079,60.8786 218.5,61C 221.359,59.3091 222.692,56.8091 222.5,53.5C 224.401,53.4332 226.234,53.7665 228,54.5C 231.093,52.2289 234.593,51.0623 238.5,51C 240.5,49 242.5,47 244.5,45C 256.605,44.4631 268.271,41.9631 279.5,37.5C 282.967,37.1888 286.467,37.1888 290,37.5C 293.026,30.5717 297.026,29.5717 302,34.5C 302.423,33.0439 303.256,32.5439 304.5,33C 305.147,34.6095 305.98,36.1095 307,37.5C 307.236,35.236 307.736,33.0693 308.5,31C 310.425,31.1349 312.425,31.3016 314.5,31.5C 314.747,34.505 313.747,37.005 311.5,39C 312.833,39.6667 314.167,39.6667 315.5,39C 314.167,38.3333 314.167,37.6667 315.5,37C 319.863,36.1065 324.196,35.1065 328.5,34C 329.787,30.1779 331.787,29.6779 334.5,32.5C 335.354,31.4783 336.354,30.6449 337.5,30C 345.216,29.1999 352.883,29.3666 360.5,30.5C 361.386,29.675 361.719,28.675 361.5,27.5C 364.95,26.7564 366.616,28.0897 366.5,31.5C 368.6,31.5228 370.433,30.8561 372,29.5C 373.605,30.1007 374.938,31.1007 376,32.5C 376.374,31.5838 376.874,30.7504 377.5,30C 379.453,28.3674 381.62,27.2007 384,26.5C 388.106,28.4695 392.272,30.3028 396.5,32C 398.713,32.6256 400.88,32.4589 403,31.5C 404.473,31.9031 405.806,32.5697 407,33.5C 407.333,33.1667 407.667,32.8333 408,32.5C 410.874,32.9592 413.208,34.2925 415,36.5C 421.417,36.5855 427.917,37.5855 434.5,39.5C 439.678,39.4223 444.845,39.4223 450,39.5C 451.845,40.7558 453.845,41.7558 456,42.5C 457.789,41.5909 459.623,41.4242 461.5,42C 463.203,44.5684 465.369,45.0684 468,43.5C 469.626,44.2887 471.126,45.2887 472.5,46.5C 474.698,43.7567 476.698,43.9233 478.5,47C 477.138,49.4388 475.305,49.9388 473,48.5C 472.25,49.1258 471.416,49.6258 470.5,50C 473.19,50.3345 473.857,51.5012 472.5,53.5 Z M 421.5,52.5 C 423.973,52.9473 424.14,53.9473 422,55.5C 421.517,54.552 421.351,53.552 421.5,52.5 Z M 427.5,60.5 C 428.369,58.283 428.702,55.9496 428.5,53.5C 430.527,53.3379 432.527,53.5045 434.5,54C 431.739,56.8009 432.406,58.6342 436.5,59.5C 436.113,60.7199 435.28,61.3865 434,61.5C 431.901,60.7135 429.734,60.3801 427.5,60.5 Z M 427.5,60.5 C 426.316,61.6879 426.316,62.8545 427.5,64C 430.177,64.2494 432.51,65.2494 434.5,67C 431.207,67.8256 427.874,68.3256 424.5,68.5C 423.678,66.2721 422.345,65.6054 420.5,66.5C 419.119,64.3089 417.119,62.9756 414.5,62.5C 418.687,60.9348 423.02,60.2681 427.5,60.5 Z M 583.5,363.5 C 581.732,371.093 580.065,378.76 578.5,386.5C 577.477,388.003 576.477,389.503 575.5,391C 577.068,393.12 576.568,394.62 574,395.5C 573.667,398.167 573.333,400.833 573,403.5C 570.696,396.861 566.53,391.861 560.5,388.5C 559.914,388.709 559.414,389.043 559,389.5C 559.456,386.572 559.456,383.572 559,380.5C 557.921,378.606 556.587,378.273 555,379.5C 554.313,381.568 554.48,383.568 555.5,385.5C 553.818,388.645 553.151,391.812 553.5,395C 556.264,396.544 556.097,397.711 553,398.5C 551.009,405.778 549.342,413.111 548,420.5C 546.045,421.453 544.378,422.787 543,424.5C 542.383,425.449 542.549,426.282 543.5,427C 539.682,427.613 538.682,429.613 540.5,433C 537.786,436.475 536.119,440.475 535.5,445C 532.891,446.941 531.057,449.441 530,452.5C 529.931,458.131 528.931,463.797 527,469.5C 524.64,472.36 522.473,475.36 520.5,478.5C 517.036,481.629 513.703,484.795 510.5,488C 511.945,491.137 513.778,491.303 516,488.5C 517.482,490.781 519.149,490.781 521,488.5C 521.683,484.298 524.017,481.298 528,479.5C 529.667,482.167 531.333,482.167 533,479.5C 534.23,480.275 534.563,481.275 534,482.5C 522.714,494.127 510.881,504.961 498.5,515C 494.495,517.422 490.162,519.089 485.5,520C 481.804,524.358 477.47,528.025 472.5,531C 470.5,531.333 468.5,531.667 466.5,532C 463.844,533.91 461.011,535.41 458,536.5C 456.105,536.385 454.438,535.718 453,534.5C 451.731,535.905 451.231,537.571 451.5,539.5C 447.801,540.004 444.635,541.67 442,544.5C 439.557,543.715 437.057,543.881 434.5,545C 433.284,546.74 431.618,547.74 429.5,548C 423.199,549.179 416.865,549.513 410.5,549C 416.965,548.412 422.298,545.745 426.5,541C 430.894,540.697 435.227,540.03 439.5,539C 443.945,535.961 448.612,533.294 453.5,531C 455.788,530.178 458.122,529.511 460.5,529C 463.701,527.206 466.701,525.206 469.5,523C 470.071,521.795 470.738,520.628 471.5,519.5C 475.474,522.616 477.808,521.616 478.5,516.5C 477.143,515.315 475.643,514.315 474,513.5C 464.589,517.738 454.755,522.238 444.5,527C 435.993,529.96 427.326,532.293 418.5,534C 416.067,535.632 413.567,537.132 411,538.5C 407.178,538.578 403.345,538.578 399.5,538.5C 387.734,542.819 375.734,543.485 363.5,540.5C 356.378,542.552 349.045,543.052 341.5,542C 340,540.833 338.5,539.667 337,538.5C 332.144,539.108 327.144,539.441 322,539.5C 311.117,538.612 300.45,536.612 290,533.5C 288.486,533.77 286.986,534.103 285.5,534.5C 272.302,530.029 258.969,527.196 245.5,526C 244.449,524.615 243.116,523.615 241.5,523C 232.347,519.917 223.347,516.583 214.5,513C 206.611,506.791 198.945,500.124 191.5,493C 181.881,487.072 173.047,479.906 165,471.5C 163.634,469.63 162.467,467.63 161.5,465.5C 163.585,465.528 165.919,465.195 168.5,464.5C 168.157,472.952 171.99,476.952 180,476.5C 181.674,480.089 184.507,481.755 188.5,481.5C 189.873,486.495 193.206,489.495 198.5,490.5C 199.647,490.182 200.481,489.516 201,488.5C 202.02,489.891 202.853,491.391 203.5,493C 204.928,493.579 206.262,493.412 207.5,492.5C 206.137,495.145 206.637,497.478 209,499.5C 210.314,498.687 211.481,497.687 212.5,496.5C 215.656,498.966 218.99,499.466 222.5,498C 223.696,494.92 222.863,492.42 220,490.5C 218.507,492.348 216.674,493.181 214.5,493C 217.066,491.121 217.066,489.288 214.5,487.5C 213.758,485.574 212.758,483.741 211.5,482C 209.343,481.922 207.343,481.755 205.5,481.5C 196.704,473.701 187.871,466.035 179,458.5C 177.361,451.419 172.861,447.752 165.5,447.5C 165.657,446.127 165.49,444.793 165,443.5C 163.075,442.12 161.241,440.62 159.5,439C 160.38,437.644 160.714,436.144 160.5,434.5C 157.261,434.587 154.261,433.92 151.5,432.5C 152.167,429.167 150.833,427.167 147.5,426.5C 143.876,419.961 141.876,412.961 141.5,405.5C 139.5,405.5 137.5,405.5 135.5,405.5C 133.309,399.962 130.642,394.629 127.5,389.5C 128.484,387.52 129.817,385.853 131.5,384.5C 129.703,381.205 127.37,378.372 124.5,376C 125.668,374.129 125.168,372.629 123,371.5C 122.628,364.764 120.795,358.598 117.5,353C 117.691,348.202 117.858,343.368 118,338.5C 113.95,337.195 112.95,334.862 115,331.5C 115.167,327.5 115.333,323.5 115.5,319.5C 114.561,311.166 114.061,302.832 114,294.5C 115.137,288.658 116.637,282.824 118.5,277C 118.241,275.739 117.574,274.739 116.5,274C 118.042,269.971 119.208,265.804 120,261.5C 121,259.833 122,258.167 123,256.5C 123.483,257.448 123.649,258.448 123.5,259.5C 126.997,259.005 127.997,257.172 126.5,254C 128.527,254.498 130.527,254.331 132.5,253.5C 134.022,251.844 133.689,250.677 131.5,250C 133.323,248.342 134.99,246.509 136.5,244.5C 135.687,243.186 134.687,242.019 133.5,241C 134.916,235.927 136.082,230.76 137,225.5C 138.29,223.208 139.957,221.208 142,219.5C 142.155,217.144 142.155,214.811 142,212.5C 143.138,210.208 144.638,208.208 146.5,206.5C 143.277,198.726 145.61,193.059 153.5,189.5C 153.316,184.613 154.483,179.946 157,175.5C 159,176.833 161,176.833 163,175.5C 163.644,171.779 164.477,168.113 165.5,164.5C 167.044,163.378 168.377,163.711 169.5,165.5C 173.374,163.47 174.374,160.47 172.5,156.5C 172.808,155.692 173.308,155.025 174,154.5C 175.203,161.373 177.703,162.039 181.5,156.5C 181.058,155.261 180.391,154.261 179.5,153.5C 182.493,152.514 185.493,151.514 188.5,150.5C 187.799,143.206 190.966,138.873 198,137.5C 198.72,135.888 198.554,134.388 197.5,133C 199.384,132.784 201.051,132.117 202.5,131C 201.167,129.667 201.167,128.333 202.5,127C 205.436,124.721 208.769,123.054 212.5,122C 214.527,119.906 216.194,117.573 217.5,115C 219.833,113.5 222.167,112 224.5,110.5C 225.451,111.326 226.451,111.492 227.5,111C 228.167,109.667 228.833,108.333 229.5,107C 236.412,103.628 243.245,100.128 250,96.5C 251.356,97.3802 252.856,97.7135 254.5,97.5C 254.33,96.1779 254.663,95.0113 255.5,94C 260.097,92.3577 264.597,90.5244 269,88.5C 269.777,90.2148 271.11,91.2148 273,91.5C 277.135,89.4313 281.135,87.098 285,84.5C 289.978,84.8858 294.978,84.2191 300,82.5C 302.291,83.0723 304.625,83.4057 307,83.5C 310.564,83.2939 313.73,82.2939 316.5,80.5C 324.349,82.1152 332.015,81.7819 339.5,79.5C 342.414,80.4043 345.247,80.071 348,78.5C 349.242,79.8721 350.742,80.8721 352.5,81.5C 358.133,81.6537 364.133,81.3203 370.5,80.5C 374.924,80.705 379.091,81.705 383,83.5C 385.332,82.1178 386.999,82.7844 388,85.5C 391.74,83.3428 392.574,80.3428 390.5,76.5C 409.518,79.5659 427.851,84.7326 445.5,92C 449.893,98.3726 455.893,102.539 463.5,104.5C 464.193,106.711 465.359,107.045 467,105.5C 470.779,107.286 473.946,109.786 476.5,113C 480.833,113.333 483.167,115.667 483.5,120C 489.528,120.186 494.528,122.853 498.5,128C 502.983,129.142 506.316,131.808 508.5,136C 509.854,137.294 511.188,137.46 512.5,136.5C 516.519,140.685 520.353,145.018 524,149.5C 523.952,151.926 524.119,154.259 524.5,156.5C 527.058,157.225 529.392,157.225 531.5,156.5C 535.987,163.488 539.821,170.822 543,178.5C 548.858,185.675 553.858,193.342 558,201.5C 558.333,203.167 558.667,204.833 559,206.5C 563.709,214.297 567.043,222.63 569,231.5C 570.667,234.5 572.333,237.5 574,240.5C 577.544,251.17 580.044,262.004 581.5,273C 581.309,275.937 580.309,278.437 578.5,280.5C 579.362,282.767 581.029,283.767 583.5,283.5C 584.187,288.637 585.187,293.637 586.5,298.5C 586.584,301.572 585.917,304.406 584.5,307C 586.45,309.805 586.783,312.805 585.5,316C 586.554,319.634 587.554,323.301 588.5,327C 586.227,330.148 585.893,333.481 587.5,337C 586.959,340.828 586.459,344.661 586,348.5C 584.989,347.663 583.822,347.33 582.5,347.5C 582.649,348.552 582.483,349.552 582,350.5C 580.786,348.951 579.286,347.785 577.5,347C 578.257,345.488 579.257,344.154 580.5,343C 577.602,339.794 578.435,337.96 583,337.5C 583.667,336.5 583.667,335.5 583,334.5C 580.34,333.166 577.506,332.332 574.5,332C 577.432,331.047 580.432,330.547 583.5,330.5C 583.657,329.127 583.49,327.793 583,326.5C 579.031,324.021 577.531,320.688 578.5,316.5C 580.681,316.716 582.347,315.883 583.5,314C 580.59,312.357 577.923,310.357 575.5,308C 576.406,306.301 576.739,304.467 576.5,302.5C 577.5,302.5 578.5,302.5 579.5,302.5C 579.753,300.173 579.086,298.173 577.5,296.5C 580.423,293.193 579.756,290.86 575.5,289.5C 574.305,288.033 574.305,286.533 575.5,285C 572.85,283.178 571.183,280.678 570.5,277.5C 571.482,274.904 572.149,272.238 572.5,269.5C 569.387,269.935 568.721,268.935 570.5,266.5C 569.751,264.964 568.751,263.631 567.5,262.5C 567.709,261.914 568.043,261.414 568.5,261C 566.76,257.218 565.093,253.385 563.5,249.5C 564.167,248.5 564.833,247.5 565.5,246.5C 564.385,245.402 564.385,244.235 565.5,243C 565.241,241.739 564.574,240.739 563.5,240C 563.833,239.667 564.167,239.333 564.5,239C 563.522,237.025 562.189,235.358 560.5,234C 561.502,232.234 561.168,230.567 559.5,229C 561.155,227.556 561.822,225.722 561.5,223.5C 559.897,223.688 558.563,223.188 557.5,222C 558.517,220.951 558.684,219.784 558,218.5C 553.667,212.833 548.667,207.833 543,203.5C 541.296,200.285 539.796,196.951 538.5,193.5C 537.391,194.59 536.391,194.59 535.5,193.5C 534.502,191.335 533.502,189.168 532.5,187C 533.796,184.266 534.296,181.433 534,178.5C 532.233,177.183 530.899,175.516 530,173.5C 529.788,169.088 528.455,165.088 526,161.5C 524.601,160.773 523.101,160.273 521.5,160C 522.603,158.32 522.27,156.82 520.5,155.5C 517.95,154.058 515.284,152.892 512.5,152C 512.075,147.741 509.742,145.241 505.5,144.5C 506.706,142.484 506.706,140.484 505.5,138.5C 503.224,137.787 500.891,137.287 498.5,137C 497.865,133.199 495.865,130.365 492.5,128.5C 491.522,128.977 490.689,129.643 490,130.5C 489.966,128.82 489.799,127.32 489.5,126C 487.285,124.956 484.952,124.29 482.5,124C 480.507,122.408 478.507,120.908 476.5,119.5C 470.678,118.393 465.178,116.393 460,113.5C 458.699,114.098 457.865,115.098 457.5,116.5C 458.154,118.115 458.654,119.782 459,121.5C 462.047,123.918 464.38,126.918 466,130.5C 485.278,142.53 502.612,157.196 518,174.5C 521.394,178.898 524.394,183.565 527,188.5C 528.074,189.618 529.24,190.618 530.5,191.5C 533.9,199.53 537.4,207.53 541,215.5C 543.716,224.315 546.549,232.982 549.5,241.5C 550.5,241.5 551.5,241.5 552.5,241.5C 552.933,244.166 553.433,246.832 554,249.5C 554.75,250.126 555.584,250.626 556.5,251C 555.862,252.707 555.862,254.54 556.5,256.5C 555.167,256.5 553.833,256.5 552.5,256.5C 552.178,258.722 552.845,260.556 554.5,262C 552.717,263.067 552.217,264.567 553,266.5C 554.925,267.88 556.759,269.38 558.5,271C 556.765,272.182 555.765,273.849 555.5,276C 556.707,277.3 557.374,278.8 557.5,280.5C 553.074,280.859 552.407,282.693 555.5,286C 556.833,286.667 558.167,287.333 559.5,288C 559.331,293.428 559.331,298.928 559.5,304.5C 555.382,308.033 555.548,311.366 560,314.5C 560.384,321.495 559.551,328.329 557.5,335C 563.04,341.877 568.206,349.043 573,356.5C 574.912,357.692 576.912,358.692 579,359.5C 579.49,360.793 579.657,362.127 579.5,363.5C 580.833,363.5 582.167,363.5 583.5,363.5 Z M 121.5,239.5 C 122.88,239.962 123.547,240.962 123.5,242.5C 122.722,244.147 121.556,245.48 120,246.5C 120.157,244.169 120.657,241.836 121.5,239.5 Z M 596.5,313.5 C 597.643,316.976 597.81,320.642 597,324.5C 595.651,320.823 595.485,317.156 596.5,313.5 Z M 673.5,369.5 C 673.157,371.225 672.157,371.725 670.5,371C 671.244,369.961 672.244,369.461 673.5,369.5 Z M 641.5,379.5 C 643.972,378.065 645.638,378.899 646.5,382C 640.235,383.464 639.902,385.797 645.5,389C 643.863,391.31 641.696,392.81 639,393.5C 637.305,388.5 638.472,384.166 642.5,380.5C 642.376,379.893 642.043,379.56 641.5,379.5 Z M 562.5,404.5 C 568.891,407.419 570.891,411.919 568.5,418C 568.603,419.561 568.937,421.061 569.5,422.5C 566.863,426.968 564.03,431.302 561,435.5C 560.517,436.448 560.351,437.448 560.5,438.5C 561.552,438.351 562.552,438.517 563.5,439C 561.899,439.273 560.399,439.773 559,440.5C 558.383,441.449 558.549,442.282 559.5,443C 556.723,449.179 554.056,455.346 551.5,461.5C 550.325,461.281 549.325,461.614 548.5,462.5C 547.806,465.088 546.64,467.421 545,469.5C 545.095,466.68 545.595,463.847 546.5,461C 544.914,456.655 546.081,453.155 550,450.5C 550.328,445.475 550.328,440.475 550,435.5C 553.208,429.079 555.875,422.412 558,415.5C 559.972,414.695 561.472,413.361 562.5,411.5C 561.947,409.273 561.947,406.939 562.5,404.5 Z M 624.5,422.5 C 623.766,423.708 623.433,425.041 623.5,426.5C 620.782,424.577 621.116,423.244 624.5,422.5 Z M 624.5,427.5 C 625.167,427.5 625.833,427.5 626.5,427.5C 626.167,428.5 625.5,429.167 624.5,429.5C 624.5,428.833 624.5,428.167 624.5,427.5 Z M 618.5,434.5 C 619.776,435.386 619.776,436.386 618.5,437.5C 617.438,436.575 617.438,435.575 618.5,434.5 Z M 623.5,436.5 C 624.289,436.783 624.956,437.283 625.5,438C 622.559,443.799 621.892,443.299 623.5,436.5 Z M 612.5,442.5 C 614.288,441.378 616.288,441.211 618.5,442C 616.342,442.909 614.342,443.075 612.5,442.5 Z M 621.5,451.5 C 623.301,454.226 622.634,455.892 619.5,456.5C 619.796,454.597 620.463,452.93 621.5,451.5 Z M 541.5,461.5 C 540.567,464.37 538.9,466.704 536.5,468.5C 536.565,464.893 538.231,462.56 541.5,461.5 Z M 176.5,471.5 C 178.337,471.639 178.67,472.306 177.5,473.5C 176.702,473.043 176.369,472.376 176.5,471.5 Z M 207.5,492.5 C 207.272,490.645 207.939,489.812 209.5,490C 208.934,490.995 208.267,491.828 207.5,492.5 Z M 299.5,548.5 C 302.033,547.882 304.699,548.048 307.5,549C 304.633,549.801 301.966,549.634 299.5,548.5 Z M 313.5,550.5 C 318.68,549.185 324.014,549.185 329.5,550.5C 331.891,551.809 331.891,552.809 329.5,553.5C 327.005,551.95 324.505,551.617 322,552.5C 319.411,551.014 316.577,550.347 313.5,550.5 Z M 341.5,552.5 C 342.543,550.148 343.876,549.981 345.5,552C 344.207,552.49 342.873,552.657 341.5,552.5 Z M 355.5,551.5 C 368.01,551.578 380.677,551.578 393.5,551.5C 393.291,552.086 392.957,552.586 392.5,553C 385.722,553.528 379.056,554.694 372.5,556.5C 369.218,554.909 366.218,555.243 363.5,557.5C 361.885,556.846 360.218,556.346 358.5,556C 357.601,554.348 356.601,552.848 355.5,551.5 Z M 508.5,598.5 C 510.496,597.312 511.329,597.979 511,600.5C 510.292,599.619 509.458,598.953 508.5,598.5 Z M 467.5,613.5 C 469.028,613.517 469.528,614.184 469,615.5C 467.951,616.517 466.784,616.684 465.5,616C 466.756,615.583 467.423,614.75 467.5,613.5 Z"/></g>
<g><path style="opacity:0.332" fill="#FFFFFF" d="M 494.5,59.5 C 492.56,62.0412 490.393,62.0412 488,59.5C 487.107,60.0814 486.107,60.4148 485,60.5C 481.188,59.8541 477.354,59.3541 473.5,59C 471.19,57.5415 470.857,55.7081 472.5,53.5C 476.412,53.6584 479.079,51.9917 480.5,48.5C 481.607,47.9781 482.774,47.6448 484,47.5C 488.159,49.056 492.326,50.7227 496.5,52.5C 497.167,52.1667 497.833,51.8333 498.5,51.5C 504.133,52.9777 509.8,54.311 515.5,55.5C 515.966,57.2012 515.966,58.7012 515.5,60C 516.728,60.779 517.728,61.779 518.5,63C 515.27,70.1222 511.604,70.2888 507.5,63.5C 507.709,62.914 508.043,62.414 508.5,62C 507.335,60.9164 506.002,60.0831 504.5,59.5C 501.17,60.7391 497.837,60.7391 494.5,59.5 Z M 494.5,59.5 C 492.958,58.6993 491.292,58.366 489.5,58.5C 487.351,53.2336 488.684,52.2336 493.5,55.5C 494.429,56.6888 494.762,58.0222 494.5,59.5 Z"/></g>
<g><path style="opacity:0.208" fill="#FFFFFF" d="M 519.5,62.5 C 524.781,62.3152 527.447,64.9819 527.5,70.5C 530.41,71.3567 533.076,72.0234 535.5,72.5C 537.23,75.3699 538.564,78.3699 539.5,81.5C 534.465,82.4979 530.298,81.1646 527,77.5C 525.202,73.578 523.702,69.578 522.5,65.5C 521.5,65.5 520.5,65.5 519.5,65.5C 519.5,64.5 519.5,63.5 519.5,62.5 Z"/></g>
<g><path style="opacity:0.213" fill="#FFFFFF" d="M 548.5,83.5 C 552.037,84.8705 554.37,87.3705 555.5,91C 558.772,91.4365 560.439,93.2699 560.5,96.5C 558.063,96.2437 555.729,95.5771 553.5,94.5C 550.346,92.2606 547.179,89.9272 544,87.5C 543.383,86.5509 543.549,85.7175 544.5,85C 546.058,84.79 547.391,84.29 548.5,83.5 Z"/></g>
<g><path style="opacity:0.463" fill="#FFFFFF" d="M 293.5,87.5 C 295.167,87.5 296.833,87.5 298.5,87.5C 297.491,90.0486 296.658,92.7152 296,95.5C 293.509,97.2904 291.342,99.4571 289.5,102C 287.272,103.399 284.939,104.566 282.5,105.5C 278.998,105.381 277.498,103.715 278,100.5C 280.103,96.0662 283.603,93.5662 288.5,93C 289.843,90.7678 291.51,88.9345 293.5,87.5 Z"/></g>
<g><path style="opacity:0.466" fill="#FFFFFF" d="M 391.5,98.5 C 393.411,98.5743 394.578,99.5743 395,101.5C 396.444,99.8446 398.278,99.178 400.5,99.5C 401.326,104.819 404.326,106.652 409.5,105C 412.455,106.448 414.455,108.615 415.5,111.5C 418.813,112.045 422.146,112.545 425.5,113C 426.548,114.756 426.548,116.59 425.5,118.5C 427.376,120.048 428.376,122.048 428.5,124.5C 426.549,124.773 425.049,124.107 424,122.5C 422.951,123.517 421.784,123.684 420.5,123C 415.884,119.41 411.218,115.91 406.5,112.5C 405.01,114.126 403.51,115.792 402,117.5C 401.167,116.667 400.333,115.833 399.5,115C 400.517,113.951 400.684,112.784 400,111.5C 397.932,108.886 395.432,108.219 392.5,109.5C 389.375,108.903 386.375,107.903 383.5,106.5C 381.675,107.651 379.675,108.318 377.5,108.5C 377.5,107.5 377.5,106.5 377.5,105.5C 376.5,105.5 375.5,105.5 374.5,105.5C 374.5,104.167 374.5,102.833 374.5,101.5C 380.394,101.061 386.06,100.061 391.5,98.5 Z"/></g>
<g><path style="opacity:0.213" fill="#FFFFFF" d="M 562.5,101.5 C 564.179,101.892 565.846,102.392 567.5,103C 570.833,105.667 574.167,108.333 577.5,111C 578.674,113.829 577.674,114.829 574.5,114C 571.443,111.277 568.11,108.944 564.5,107C 561.918,105.662 561.251,103.829 562.5,101.5 Z"/></g>
<g><path style="opacity:0.211" fill="#FFFFFF" d="M 262.5,111.5 C 265.666,113.154 267.333,115.821 267.5,119.5C 260.731,119.758 259.064,117.091 262.5,111.5 Z"/></g>
<g><path style="opacity:0.109" fill="#FFFFFF" d="M 580.5,114.5 C 583.324,114.989 584.657,116.656 584.5,119.5C 580.424,119.706 579.091,118.039 580.5,114.5 Z"/></g>
<g><path style="opacity:0.553" fill="#FFFFFF" d="M 255.5,115.5 C 257.017,115.511 258.184,116.177 259,117.5C 260.167,119.833 261.333,122.167 262.5,124.5C 253.237,130.383 243.403,135.383 233,139.5C 232.833,138.667 232.667,137.833 232.5,137C 234.073,134.395 235.74,131.728 237.5,129C 239.631,128.457 241.631,127.624 243.5,126.5C 241.73,125.18 241.397,123.68 242.5,122C 245.167,121.667 247.833,121.333 250.5,121C 251.617,119.108 253.284,118.275 255.5,118.5C 255.5,117.5 255.5,116.5 255.5,115.5 Z"/></g>
<g><path style="opacity:0.549" fill="#FFFFFF" d="M 431.5,120.5 C 439.042,120.191 441.876,123.524 440,130.5C 438.333,131.5 436.667,132.5 435,133.5C 433.559,132.13 431.892,131.13 430,130.5C 429.063,126.833 429.563,123.499 431.5,120.5 Z"/></g>
<g><path style="opacity:0.401" fill="#FFFFFF" d="M 410.5,128.5 C 414.815,128.954 418.981,129.954 423,131.5C 425.408,135.792 426.242,140.292 425.5,145C 424.833,145.667 424.167,145.667 423.5,145C 422.044,143.255 420.711,141.422 419.5,139.5C 418.167,140.833 416.833,140.833 415.5,139.5C 414.667,137.5 413.833,135.5 413,133.5C 412.586,133.957 412.086,134.291 411.5,134.5C 410.534,132.604 410.201,130.604 410.5,128.5 Z"/></g>
<g><path style="opacity:0.028" fill="#FFFFFF" d="M 603.5,129.5 C 606.388,130.54 606.721,131.873 604.5,133.5C 602.358,132.563 602.024,131.23 603.5,129.5 Z"/></g>
<g><path style="opacity:0.966" fill="#FFFFFF" d="M 1945.5,129.5 C 1974.84,129.009 1988.01,143.342 1985,172.5C 1977.84,191.833 1964.01,200 1943.5,197C 1924.28,191.423 1915.78,178.59 1918,158.5C 1920.89,142.775 1930.06,133.109 1945.5,129.5 Z"/></g>
<g><path style="opacity:0.966" fill="#FFFFFF" d="M 3736.5,129.5 C 3747.17,129.333 3757.84,129.5 3768.5,130C 3770.49,131.319 3771.65,133.152 3772,135.5C 3772.5,178.832 3772.67,222.165 3772.5,265.5C 3802.84,265.333 3833.17,265.5 3863.5,266C 3864.93,266.465 3866.1,267.299 3867,268.5C 3867.67,278.167 3867.67,287.833 3867,297.5C 3866.1,298.701 3864.93,299.535 3863.5,300C 3833.17,300.5 3802.84,300.667 3772.5,300.5C 3772.67,394.167 3772.5,487.834 3772,581.5C 3771.5,584.667 3769.67,586.5 3766.5,587C 3756.83,587.667 3747.17,587.667 3737.5,587C 3735.51,586.426 3734.01,585.259 3733,583.5C 3732.5,489.167 3732.33,394.834 3732.5,300.5C 3702.16,300.667 3671.83,300.5 3641.5,300C 3639.67,299.727 3638.17,298.893 3637,297.5C 3636.33,287.833 3636.33,278.167 3637,268.5C 3638.17,267.107 3639.67,266.273 3641.5,266C 3671.83,265.5 3702.16,265.333 3732.5,265.5C 3732.33,221.499 3732.5,177.499 3733,133.5C 3733.69,131.65 3734.86,130.316 3736.5,129.5 Z"/></g>
<g><path style="opacity:0.087" fill="#FFFFFF" d="M 202.5,146.5 C 204.252,146.418 205.252,147.251 205.5,149C 204.852,150.44 204.519,151.94 204.5,153.5C 200.623,153.517 199.957,152.351 202.5,150C 201.316,148.855 201.316,147.688 202.5,146.5 Z"/></g>
<g><path style="opacity:0.097" fill="#FFFFFF" d="M 168.5,168.5 C 170.8,168.522 171.967,169.522 172,171.5C 169.342,172.694 168.176,171.694 168.5,168.5 Z"/></g>
<g><path style="opacity:0.971" fill="#FFFFFF" d="M 1231.5,255.5 C 1284.49,254.427 1328.66,273.427 1364,312.5C 1386.03,340.225 1398.03,371.892 1400,407.5C 1400.67,466.167 1400.67,524.833 1400,583.5C 1399.63,584.416 1399.13,585.25 1398.5,586C 1387.91,587.595 1377.24,587.928 1366.5,587C 1365.23,586.691 1364.07,586.191 1363,585.5C 1361.69,566.923 1361.03,548.257 1361,529.5C 1337.06,564.907 1303.89,586.407 1261.5,594C 1220.39,601.654 1181.39,595.654 1144.5,576C 1092.09,540.353 1066.09,490.52 1066.5,426.5C 1065.7,354.218 1097.36,302.052 1161.5,270C 1184.07,260.853 1207.4,256.02 1231.5,255.5 Z M 1226.5,292.5 C 1254.94,291.353 1281.61,297.519 1306.5,311C 1333.08,328.615 1349.91,353.115 1357,384.5C 1365.3,421.816 1362.3,458.15 1348,493.5C 1327.61,533.959 1294.78,556.459 1249.5,561C 1211.82,565.501 1178.15,556.167 1148.5,533C 1123.55,509.254 1109.71,480.087 1107,445.5C 1102.25,406.91 1110.58,371.577 1132,339.5C 1156.39,309.556 1187.89,293.89 1226.5,292.5 Z"/></g>
<g><path style="opacity:0.969" fill="#FFFFFF" d="M 2611.5,255.5 C 2645.43,254.867 2676.09,264.367 2703.5,284C 2717.78,296.281 2728.11,311.281 2734.5,329C 2733.58,332.256 2731.58,334.589 2728.5,336C 2723.17,338 2717.83,340 2712.5,342C 2708.25,344.348 2704.42,343.848 2701,340.5C 2685.65,311.552 2661.48,295.719 2628.5,293C 2599.28,289.702 2571.62,294.702 2545.5,308C 2526.71,322.696 2519.54,341.863 2524,365.5C 2526.17,374.001 2531,380.501 2538.5,385C 2546.5,389.444 2554.83,393.111 2563.5,396C 2596.17,404.001 2628.84,412.001 2661.5,420C 2678.89,425.364 2694.89,433.364 2709.5,444C 2732.77,464.465 2741.27,489.965 2735,520.5C 2728.38,548.784 2711.88,568.951 2685.5,581C 2642.8,598.43 2599.13,601.43 2554.5,590C 2522.54,580.292 2499.37,560.459 2485,530.5C 2483.1,526.803 2483.1,523.136 2485,519.5C 2493.51,514.15 2502.67,510.983 2512.5,510C 2517.16,514.466 2521,519.633 2524,525.5C 2542.22,545.864 2565.06,557.697 2592.5,561C 2618.51,563.166 2643.51,559.166 2667.5,549C 2694.26,534.309 2702.76,512.475 2693,483.5C 2684.82,471.662 2673.99,463.162 2660.5,458C 2632.88,449.763 2604.88,443.096 2576.5,438C 2550.79,433.802 2527.45,424.135 2506.5,409C 2490.35,393.912 2482.35,375.246 2482.5,353C 2483.62,315.064 2501.29,288.064 2535.5,272C 2559.86,261.43 2585.19,255.93 2611.5,255.5 Z"/></g>
<g><path style="opacity:0.971" fill="#FFFFFF" d="M 3176.5,255.5 C 3230.94,254.569 3275.78,274.569 3311,315.5C 3332.23,343.838 3343.56,375.838 3345,411.5C 3345.67,468.833 3345.67,526.167 3345,583.5C 3343.99,585.259 3342.49,586.426 3340.5,587C 3330.83,587.667 3321.17,587.667 3311.5,587C 3309.67,586.727 3308.17,585.893 3307,584.5C 3306.67,565.833 3306.33,547.167 3306,528.5C 3282.18,564.181 3249.02,586.015 3206.5,594C 3169.97,600.673 3134.63,596.673 3100.5,582C 3047.92,552.685 3018.42,507.852 3012,447.5C 3007.6,407.961 3014.6,370.627 3033,335.5C 3066.36,283.228 3114.2,256.561 3176.5,255.5 Z M 3170.5,292.5 C 3204.45,290.482 3235.12,299.315 3262.5,319C 3287.98,342.136 3302.15,370.969 3305,405.5C 3308.3,434.742 3304.64,463.076 3294,490.5C 3274.25,533.315 3240.75,556.815 3193.5,561C 3157.26,565.109 3124.59,556.442 3095.5,535C 3069.73,511.968 3055.23,483.134 3052,448.5C 3047.33,413.514 3053.33,380.514 3070,349.5C 3093.76,313.532 3127.26,294.532 3170.5,292.5 Z"/></g>
<g><path style="opacity:0.976" fill="#FFFFFF" d="M 971.5,259.5 C 980.513,259.715 989.513,260.215 998.5,261C 1006.05,261.777 1013.39,263.444 1020.5,266C 1021.96,268.077 1022.62,270.41 1022.5,273C 1021.27,281.548 1019.77,290.048 1018,298.5C 1016.84,300.665 1015.01,301.665 1012.5,301.5C 991.424,296.365 970.424,296.532 949.5,302C 922.751,310.322 908.584,328.488 907,356.5C 906.667,432.167 906.333,507.833 906,583.5C 904.786,585.049 903.286,586.215 901.5,587C 891.833,587.667 882.167,587.667 872.5,587C 870.671,586.727 869.171,585.893 868,584.5C 867.333,506.833 867.333,429.167 868,351.5C 873.33,307.324 897.164,278.49 939.5,265C 950.16,262.267 960.827,260.434 971.5,259.5 Z"/></g>
<g><path style="opacity:0.961" fill="#FFFFFF" d="M 3545.5,259.5 C 3561.41,259.35 3577.08,261.184 3592.5,265C 3595.02,266.87 3596.35,269.37 3596.5,272.5C 3594.89,281.147 3593.39,289.814 3592,298.5C 3590.28,300.444 3588.11,301.444 3585.5,301.5C 3560.67,295.424 3536.33,296.924 3512.5,306C 3493.32,315.885 3482.82,331.719 3481,353.5C 3480.67,429.5 3480.33,505.5 3480,581.5C 3479.6,584.232 3478.1,586.065 3475.5,587C 3465.5,587.667 3455.5,587.667 3445.5,587C 3443.33,586.167 3441.83,584.667 3441,582.5C 3440.33,508.833 3440.33,435.167 3441,361.5C 3443.17,312.68 3467.34,280.514 3513.5,265C 3524.16,262.267 3534.83,260.434 3545.5,259.5 Z"/></g>
<g><path style="opacity:0.078" fill="#FFFFFF" d="M 128.5,260.5 C 129.643,260.908 130.643,261.575 131.5,262.5C 129.833,263.833 128.167,263.833 126.5,262.5C 127.243,261.818 127.909,261.151 128.5,260.5 Z"/></g>
<g><path style="opacity:0.98" fill="#FFFFFF" d="M 1937.5,265.5 C 1947.17,265.334 1956.84,265.5 1966.5,266C 1968.85,266.11 1970.35,267.277 1971,269.5C 1971.67,374.167 1971.67,478.833 1971,583.5C 1970.35,585.723 1968.85,586.89 1966.5,587C 1956.83,587.667 1947.17,587.667 1937.5,587C 1935.67,586.727 1934.17,585.893 1933,584.5C 1932.33,479.167 1932.33,373.833 1933,268.5C 1934.41,267.219 1935.91,266.219 1937.5,265.5 Z"/></g>
<g><path style="opacity:0.97" fill="#FFFFFF" d="M 2085.5,265.5 C 2095.51,265.334 2105.51,265.5 2115.5,266C 2117.67,266.833 2119.17,268.333 2120,270.5C 2120.33,331.5 2120.67,392.5 2121,453.5C 2127.23,522.033 2164.73,557.7 2233.5,560.5C 2300.17,558.001 2337.67,523.668 2346,457.5C 2347.27,394.513 2347.93,331.513 2348,268.5C 2349.17,267.107 2350.67,266.273 2352.5,266C 2362.17,265.333 2371.83,265.333 2381.5,266C 2383,266.583 2384.33,267.416 2385.5,268.5C 2386.66,329.793 2386.83,391.126 2386,452.5C 2385,490.461 2372.33,523.795 2348,552.5C 2316.46,583.25 2278.46,598.25 2234,597.5C 2186.7,598.524 2147.03,581.857 2115,547.5C 2095.35,521.904 2084.35,492.904 2082,460.5C 2080.39,397.514 2080.06,334.514 2081,271.5C 2081.6,268.746 2083.1,266.746 2085.5,265.5 Z"/></g>
<g><path style="opacity:0.153" fill="#FFFFFF" d="M 549.5,284.5 C 553.013,285.028 554.013,286.862 552.5,290C 550.045,290.772 548.378,289.939 547.5,287.5C 547.942,286.261 548.609,285.261 549.5,284.5 Z"/></g>
<g><path style="opacity:0.353" fill="#FFFFFF" d="M 549.5,304.5 C 551.722,304.559 552.722,305.725 552.5,308C 551.372,310.653 550.372,313.319 549.5,316C 550.766,316.309 551.933,316.809 553,317.5C 553.246,320.934 552.746,324.267 551.5,327.5C 545.168,327.459 543.501,324.792 546.5,319.5C 544.268,315.804 543.268,311.804 543.5,307.5C 544.822,307.33 545.989,307.663 547,308.5C 547.662,307.016 548.496,305.683 549.5,304.5 Z"/></g>
<g><path style="opacity:0.038" fill="#FFFFFF" d="M 686.5,306.5 C 687.5,306.5 688.5,306.5 689.5,306.5C 689.5,307.833 689.5,309.167 689.5,310.5C 686.45,310.354 685.45,309.02 686.5,306.5 Z"/></g>
<g><path style="opacity:0.201" fill="#FFFFFF" d="M 685.5,311.5 C 686.5,311.5 687.5,311.5 688.5,311.5C 688.665,315.182 688.499,318.848 688,322.5C 685.2,324.118 683.7,323.285 683.5,320C 684.275,317.178 684.942,314.344 685.5,311.5 Z"/></g>
<g><path style="opacity:0.559" fill="#FFFFFF" d="M 177.5,317.5 C 178.5,317.5 179.5,317.5 180.5,317.5C 180.408,321.071 182.074,322.238 185.5,321C 186.667,319.833 187.833,318.667 189,317.5C 189.87,318.108 190.37,318.941 190.5,320C 190.376,323.012 190.209,326.179 190,329.5C 189.308,330.025 188.808,330.692 188.5,331.5C 192.521,339.94 190.021,343.94 181,343.5C 175.139,335.479 173.972,326.813 177.5,317.5 Z"/></g>
<g><path style="opacity:0.373" fill="#FFFFFF" d="M 536.5,361.5 C 539.643,362.134 542.143,363.8 544,366.5C 544.324,371.302 543.824,375.969 542.5,380.5C 537.011,379.019 535.344,375.519 537.5,370C 535.925,367.185 535.592,364.352 536.5,361.5 Z"/></g>
<g><path style="opacity:0.228" fill="#FFFFFF" d="M 531.5,385.5 C 532.5,385.5 533.5,385.5 534.5,385.5C 533.753,388.914 533.753,392.247 534.5,395.5C 533.127,395.343 531.793,395.51 530.5,396C 532.035,399.006 532.535,402.173 532,405.5C 526.805,406.883 524.805,404.883 526,399.5C 528.142,394.906 529.976,390.24 531.5,385.5 Z"/></g>
<g><path style="opacity:0.263" fill="#FFFFFF" d="M 514.5,412.5 C 516.167,412.5 517.833,412.5 519.5,412.5C 519.662,414.527 519.495,416.527 519,418.5C 516.885,421.318 515.052,421.151 513.5,418C 514.406,416.301 514.739,414.467 514.5,412.5 Z"/></g>
<g><path style="opacity:0.234" fill="#FFFFFF" d="M 526.5,412.5 C 527.5,412.5 528.5,412.5 529.5,412.5C 531.361,414.745 532.361,417.412 532.5,420.5C 525.761,421.46 523.761,418.793 526.5,412.5 Z"/></g>
<g><path style="opacity:0.137" fill="#FFFFFF" d="M 626.5,427.5 C 625.833,427.5 625.167,427.5 624.5,427.5C 623.833,427.5 623.5,427.167 623.5,426.5C 623.433,425.041 623.766,423.708 624.5,422.5C 626.753,420.183 628.42,417.35 629.5,414C 632.667,413.167 633.833,414.333 633,417.5C 630.944,421.026 628.777,424.36 626.5,427.5 Z"/></g>
<g><path style="opacity:0.115" fill="#FFFFFF" d="M 167.5,420.5 C 170.685,420.722 171.685,422.222 170.5,425C 166.707,425.487 165.707,423.987 167.5,420.5 Z"/></g>
<g><path style="opacity:0.223" fill="#FFFFFF" d="M 561.5,420.5 C 562.5,420.5 563.5,420.5 564.5,420.5C 564.693,424.007 564.027,427.34 562.5,430.5C 561.311,431.429 559.978,431.762 558.5,431.5C 558.12,427.429 559.12,423.762 561.5,420.5 Z"/></g>
<g><path style="opacity:0.427" fill="#FFFFFF" d="M 493.5,450.5 C 503.464,451.839 504.131,455.506 495.5,461.5C 493.06,466.047 490.893,470.713 489,475.5C 486.242,476.795 483.742,478.461 481.5,480.5C 480.914,480.291 480.414,479.957 480,479.5C 478.317,474.899 479.817,472.399 484.5,472C 481.968,471.388 481.135,469.888 482,467.5C 483.769,465.46 485.935,463.96 488.5,463C 485.515,457.801 487.015,454.634 493,453.5C 493.483,452.552 493.649,451.552 493.5,450.5 Z"/></g>
<g><path style="opacity:0.366" fill="#FFFFFF" d="M 53.5,452.5 C 54.9305,452.421 56.2638,452.754 57.5,453.5C 59.4647,456.634 61.6314,459.634 64,462.5C 64.49,461.207 64.6567,459.873 64.5,458.5C 71.3188,459.985 75.9855,463.985 78.5,470.5C 77.325,470.281 76.325,470.614 75.5,471.5C 76.9501,472.85 77.6168,474.516 77.5,476.5C 71.8311,474.254 67.6644,470.254 65,464.5C 63.5728,466.787 61.7394,467.12 59.5,465.5C 58.2848,462.664 56.6182,460.164 54.5,458C 53.7665,456.234 53.4332,454.401 53.5,452.5 Z"/></g>
<g><path style="opacity:0.12" fill="#FFFFFF" d="M 524.5,456.5 C 526.346,456.222 527.68,456.889 528.5,458.5C 527.68,460.111 526.346,460.778 524.5,460.5C 524.5,459.167 524.5,457.833 524.5,456.5 Z"/></g>
<g><path style="opacity:0.1" fill="#FFFFFF" d="M 519.5,462.5 C 524.784,464.633 524.45,466.3 518.5,467.5C 518.366,465.708 518.699,464.042 519.5,462.5 Z"/></g>
<g><path style="opacity:0.509" fill="#FFFFFF" d="M 467.5,471.5 C 473.023,474.091 473.69,477.591 469.5,482C 467.671,482.273 466.171,483.107 465,484.5C 464.674,490.146 463.34,495.479 461,500.5C 457.458,501.699 454.124,503.366 451,505.5C 450.228,505.355 449.561,505.022 449,504.5C 448.506,502.866 448.34,501.199 448.5,499.5C 450.144,499.286 451.644,499.62 453,500.5C 453.692,499.975 454.192,499.308 454.5,498.5C 452.507,496.501 450.173,495.001 447.5,494C 446.549,493.282 446.383,492.449 447,491.5C 450.405,488.923 453.738,488.923 457,491.5C 457.24,489.023 456.406,486.856 454.5,485C 459.064,480.605 463.398,476.105 467.5,471.5 Z"/></g>
<g><path style="opacity:0.171" fill="#FFFFFF" d="M 512.5,491.5 C 513.5,491.5 514.5,491.5 515.5,491.5C 515.704,495.281 514.037,497.614 510.5,498.5C 510.394,495.921 511.061,493.588 512.5,491.5 Z"/></g>
<g><path style="opacity:0.095" fill="#FFFFFF" d="M 442.5,496.5 C 446.625,497.378 447.125,499.045 444,501.5C 442.731,500.095 442.231,498.429 442.5,496.5 Z"/></g>
<g><path style="opacity:0.184" fill="#FFFFFF" d="M 219.5,500.5 C 224.016,500.256 227.016,502.256 228.5,506.5C 226.141,507.705 223.974,507.372 222,505.5C 219.759,507.127 218.259,506.627 217.5,504C 217.978,502.697 218.645,501.531 219.5,500.5 Z"/></g>
<g><path style="opacity:0.057" fill="#FFFFFF" d="M 497.5,502.5 C 501.814,502.772 502.314,504.105 499,506.5C 497.812,505.437 497.312,504.103 497.5,502.5 Z"/></g>
<g><path style="opacity:0.084" fill="#FFFFFF" d="M 235.5,505.5 C 238.279,507.302 238.112,508.969 235,510.5C 233.198,508.727 233.365,507.06 235.5,505.5 Z"/></g>
<g><path style="opacity:0.366" fill="#FFFFFF" d="M 334.5,511.5 C 340.021,512.019 342.688,515.019 342.5,520.5C 335.838,520.78 330.005,518.78 325,514.5C 324.626,513.584 324.126,512.75 323.5,512C 325.47,509.684 327.804,507.851 330.5,506.5C 332.611,507.605 333.945,509.271 334.5,511.5 Z"/></g>
<g><path style="opacity:0.167" fill="#FFFFFF" d="M 478.5,516.5 C 476.456,512.321 477.789,509.987 482.5,509.5C 483.478,509.977 484.311,510.643 485,511.5C 487.703,509.098 490.87,507.765 494.5,507.5C 494.5,508.833 494.5,510.167 494.5,511.5C 491.675,512.143 489.175,513.477 487,515.5C 485.739,515.241 484.739,514.574 484,513.5C 482.826,515.671 480.993,516.671 478.5,516.5 Z"/></g>
<g><path style="opacity:0.059" fill="#FFFFFF" d="M 292.5,510.5 C 293.5,510.5 294.5,510.5 295.5,510.5C 295.5,511.833 295.5,513.167 295.5,514.5C 292.046,514.733 291.046,513.4 292.5,510.5 Z"/></g>
<g><path style="opacity:0.493" fill="#FFFFFF" d="M 417.5,511.5 C 419.635,511.147 420.968,511.98 421.5,514C 421.732,517.076 421.232,520.243 420,523.5C 417.145,525.452 413.978,526.619 410.5,527C 409.663,528.011 409.33,529.178 409.5,530.5C 405.894,530.789 402.394,530.456 399,529.5C 398.333,528.5 398.333,527.5 399,526.5C 400.563,525.275 401.73,523.775 402.5,522C 401.144,520.433 400.477,518.6 400.5,516.5C 403.498,516.249 405.998,517.249 408,519.5C 411.346,516.982 414.513,514.316 417.5,511.5 Z"/></g>
<g><path style="opacity:0.972" fill="#FFFFFF" d="M 2868.5,515.5 C 2896.42,512.938 2912.42,525.438 2916.5,553C 2913.63,576.036 2900.63,588.869 2877.5,591.5C 2850.99,588.159 2838.49,573.159 2840,546.5C 2843.46,530.543 2852.96,520.21 2868.5,515.5 Z"/></g>
</svg>
