<?xml version="1.0" standalone="no"?>
<!DOCTYPE svg PUBLIC "-//W3C//DTD SVG 20010904//EN"
 "http://www.w3.org/TR/2001/REC-SVG-20010904/DTD/svg10.dtd">
<svg version="1.0" xmlns="http://www.w3.org/2000/svg"
 width="660.000000pt" height="660.000000pt" viewBox="0 0 660.000000 660.000000"
 preserveAspectRatio="xMidYMid meet">
<metadata>
Created by potrace 1.14, written by Peter Selinger 2001-2017
</metadata>
<g transform="translate(0.000000,660.000000) scale(0.100000,-0.100000)"
fill="#000000" stroke="none">
<path d="M3517 6299 c-6 -10 -17 -19 -24 -19 -7 0 -13 -7 -13 -15 0 -19 -10
-19 -39 1 -17 12 -26 13 -34 5 -18 -18 -35 -13 -51 17 -15 26 -17 26 -20 0 -1
-8 -12 -12 -26 -10 -14 2 -70 5 -124 6 -94 1 -126 -7 -126 -33 0 -3 -12 -6
-27 -5 -16 1 -32 -1 -38 -5 -5 -3 -16 -6 -23 -7 -30 -5 -41 -14 -36 -29 4 -9
1 -15 -7 -16 -8 0 -43 -1 -78 -3 -44 -2 -67 2 -77 11 -8 8 -14 10 -14 5 0 -6
-17 -13 -39 -17 -21 -3 -47 -14 -57 -24 -24 -22 -54 -33 -54 -21 0 20 -2 25
-12 38 -6 7 -8 15 -5 18 10 10 39 -5 32 -16 -3 -5 0 -7 9 -4 8 3 12 12 9 20
-3 8 1 14 11 14 9 0 16 4 16 9 0 6 -14 6 -34 0 -19 -5 -40 -8 -48 -7 -15 4
-18 -33 -3 -45 6 -5 4 -11 -8 -18 -9 -6 -15 -14 -12 -20 6 -9 1 -11 -27 -13
-7 -1 -19 -6 -26 -13 -15 -14 -42 -7 -42 12 0 21 25 36 38 23 14 -14 45 8 35
25 -4 6 -9 3 -14 -9 -7 -18 -8 -18 -8 2 -1 12 6 24 14 28 8 3 15 10 15 16 0 7
-6 8 -19 0 -11 -5 -33 -10 -50 -10 -17 0 -31 -5 -31 -11 0 -5 4 -7 10 -4 6 3
7 -1 4 -10 -4 -9 -9 -14 -13 -13 -59 31 -62 32 -72 17 -5 -8 -9 -10 -9 -5 0 5
-6 3 -14 -3 -19 -16 -78 -33 -71 -20 4 5 1 9 -4 9 -6 0 -11 -5 -11 -10 0 -6
-22 -9 -55 -7 -30 2 -55 1 -55 -2 0 -3 -14 -15 -30 -26 -17 -11 -28 -26 -25
-33 3 -9 -5 -12 -28 -10 -18 1 -45 -6 -60 -17 -23 -15 -33 -16 -47 -7 -16 9
-19 8 -22 -9 -2 -11 -7 -20 -13 -21 -14 -2 -35 -25 -35 -38 0 -6 -5 -8 -10 -5
-6 4 -17 1 -25 -5 -8 -7 -15 -9 -15 -4 0 5 -7 1 -14 -9 -8 -10 -28 -19 -45
-22 -17 -2 -36 -7 -43 -12 -7 -4 -15 -8 -18 -9 -5 0 -75 -16 -92 -20 -5 -1
-12 -2 -18 -3 -5 0 -10 -11 -10 -24 0 -12 -9 -28 -21 -35 -17 -11 -20 -11 -13
0 4 7 -6 0 -22 -17 -16 -16 -29 -34 -29 -40 0 -5 -6 -11 -12 -11 -7 -1 -20 -2
-28 -3 -8 0 -15 -7 -15 -15 0 -17 -45 -27 -59 -13 -6 6 -11 7 -11 2 0 -6 -5
-3 -10 5 -8 13 -14 10 -38 -16 -15 -17 -26 -36 -24 -42 1 -5 -5 -13 -16 -16
-10 -4 -25 -17 -32 -31 -7 -13 -16 -22 -20 -20 -10 6 -32 -20 -23 -28 3 -4 -2
-7 -13 -7 -20 -1 -54 -22 -54 -34 0 -9 -59 -66 -69 -66 -4 0 -19 -10 -33 -22
-14 -13 -35 -31 -47 -41 -18 -15 -20 -21 -11 -33 7 -8 9 -14 5 -14 -5 0 0 -10
11 -22 10 -13 12 -18 4 -11 -22 16 -48 2 -108 -56 -33 -32 -52 -57 -48 -66 3
-8 0 -17 -6 -21 -7 -5 -8 -2 -4 7 4 8 1 5 -8 -6 -8 -11 -19 -24 -23 -30 -5 -5
-9 -20 -10 -33 -1 -12 -11 -35 -22 -51 -12 -16 -22 -41 -23 -54 -1 -15 -10
-28 -19 -30 -9 -3 -25 -22 -35 -43 -10 -22 -24 -45 -31 -52 -13 -14 -17 -27
-14 -51 2 -8 -2 -10 -10 -5 -9 5 -10 2 -6 -9 3 -9 -1 -36 -9 -59 -9 -24 -18
-53 -20 -66 -2 -12 -13 -37 -23 -55 -10 -17 -18 -51 -19 -74 -2 -37 1 -43 18
-43 24 0 24 0 6 -35 -8 -15 -13 -34 -12 -43 2 -9 -5 -21 -14 -27 -49 -30 -84
-55 -77 -56 4 -1 11 -2 16 -3 16 -2 25 -16 11 -16 -7 0 -10 -3 -7 -7 4 -3 -4
-14 -19 -23 -19 -13 -22 -19 -11 -23 14 -5 15 -14 2 -84 -7 -40 -14 -47 -41
-44 -7 1 -14 -5 -18 -14 -5 -13 5 -20 27 -16 13 2 7 -14 -12 -31 -27 -23 -63
-42 -81 -43 -8 0 -15 -7 -15 -15 0 -8 5 -14 12 -13 6 1 14 -4 17 -12 3 -9 -1
-15 -10 -15 -10 0 -13 -7 -8 -25 5 -20 2 -25 -20 -31 -14 -3 -37 -3 -51 0 -21
5 -25 2 -29 -26 -7 -39 -9 -68 -7 -88 1 -13 2 -13 11 0 7 11 10 -4 11 -50 1
-79 3 -95 23 -187 3 -12 12 -38 21 -57 9 -19 14 -43 11 -53 -3 -10 -8 -62 -11
-115 -3 -54 -8 -108 -11 -120 -3 -13 -7 -50 -9 -83 -4 -54 -1 -64 26 -102 22
-31 29 -52 29 -87 0 -24 -4 -48 -10 -51 -18 -11 -12 -35 7 -28 17 7 17 6 0
-20 -17 -27 -24 -93 -8 -83 13 9 19 -14 14 -59 -2 -25 1 -43 9 -50 7 -5 14
-17 16 -25 2 -11 -1 -11 -12 3 -12 15 -14 15 -19 3 -4 -9 0 -22 8 -30 16 -16
21 -51 6 -42 -5 3 -7 -11 -4 -32 10 -76 10 -87 3 -102 -4 -8 -10 -30 -13 -48
-8 -41 6 -34 33 16 10 20 20 33 21 27 6 -34 5 -72 -3 -87 -5 -11 -4 -20 4 -24
6 -4 14 -2 16 5 3 9 7 9 18 0 21 -17 17 -31 -8 -23 -18 5 -17 1 10 -27 18 -19
32 -39 32 -46 0 -6 15 -28 34 -48 31 -33 34 -40 29 -84 -4 -46 -3 -50 26 -67
17 -10 30 -25 28 -34 -1 -8 4 -14 11 -12 7 1 18 -9 24 -23 6 -14 15 -25 20
-25 4 0 8 -7 8 -15 0 -18 20 -57 35 -67 6 -4 6 -8 2 -8 -4 0 -3 -6 3 -12 5 -7
27 -38 47 -68 20 -30 43 -61 50 -68 7 -8 18 -22 24 -33 6 -11 20 -24 31 -28
14 -5 21 -18 23 -41 2 -19 8 -36 14 -38 6 -2 9 -7 6 -11 -6 -11 37 -68 72 -94
15 -12 29 -29 31 -37 2 -8 8 -16 13 -18 5 -2 9 -7 9 -11 0 -4 41 -49 90 -101
50 -52 90 -98 90 -102 0 -4 3 -7 8 -7 27 4 44 -4 52 -27 6 -14 19 -28 30 -31
11 -3 20 -9 20 -14 0 -5 4 -8 8 -6 7 2 66 -40 96 -69 6 -5 47 -33 91 -62 44
-28 85 -55 90 -59 6 -5 24 -15 40 -23 17 -8 41 -22 55 -31 24 -16 189 -102
200 -105 3 0 18 -6 33 -12 16 -7 31 -12 34 -12 6 0 69 -27 95 -41 10 -5 24 -9
32 -9 7 0 20 -8 27 -17 12 -14 12 -16 0 -8 -10 5 -12 4 -7 -3 4 -7 14 -12 22
-12 8 0 14 -4 14 -10 0 -5 7 -10 15 -10 8 0 15 -4 15 -10 0 -5 9 -10 20 -10
11 0 20 -4 20 -10 0 -5 7 -10 15 -10 8 0 15 -4 15 -8 0 -5 18 -14 40 -21 22
-6 40 -16 40 -22 0 -6 4 -8 9 -5 5 4 11 3 13 -1 5 -12 105 -58 120 -55 15 3
87 -35 80 -43 -4 -4 3 -5 14 -1 14 4 28 1 38 -10 20 -19 140 -44 241 -50 130
-8 155 -11 169 -23 10 -9 21 -9 42 0 16 7 31 13 34 13 3 1 11 5 18 9 8 6 15 0
21 -16 9 -22 14 -24 55 -21 32 3 46 1 46 -8 0 -9 3 -9 12 0 10 10 10 15 -2 22
-8 5 -17 7 -20 5 -4 -2 -7 2 -7 10 0 23 31 18 63 -10 16 -14 31 -25 34 -26 3
0 28 -2 56 -3 27 -1 55 -6 61 -9 7 -4 14 -4 17 1 7 12 64 14 71 2 3 -5 19 -10
35 -10 23 0 27 3 23 20 -4 14 0 20 11 20 9 0 16 -3 16 -8 0 -15 46 -35 83 -36
31 -1 37 2 34 16 -3 9 2 20 12 24 23 9 81 12 87 3 2 -4 17 -4 33 1 16 4 33 5
37 2 4 -4 5 0 2 9 -10 27 6 41 28 24 17 -13 17 -14 2 -15 -20 0 -25 -19 -5
-22 35 -4 43 -2 52 16 14 26 58 30 49 4 -6 -19 10 -25 21 -8 4 7 14 6 28 -2
27 -15 49 -19 42 -9 -2 5 6 13 18 18 25 12 43 12 39 0 -1 -5 2 -6 8 -2 6 3 8
10 5 15 -7 12 9 20 47 24 18 2 41 7 51 11 10 4 17 3 17 -3 0 -6 9 -10 19 -9
16 1 18 5 9 20 -5 10 -7 26 -4 34 5 13 9 12 25 -6 15 -17 20 -19 30 -8 9 11
28 14 60 8 3 -1 0 -6 -7 -13 -7 -7 -12 -21 -12 -33 1 -17 3 -16 16 8 8 15 19
28 24 28 20 3 25 4 37 12 7 5 13 5 13 0 0 -4 5 0 11 11 9 15 13 16 20 5 6 -10
9 -8 9 10 0 17 4 22 16 17 9 -4 23 -1 30 5 10 8 14 8 14 0 0 -6 5 -11 11 -11
7 0 8 7 4 18 -3 9 -7 19 -8 22 -1 3 3 6 8 8 6 1 10 -2 10 -7 0 -5 3 -13 8 -17
4 -4 7 2 7 14 0 11 6 24 13 28 6 4 9 4 5 -1 -4 -4 -3 -14 3 -22 6 -7 9 -23 6
-35 -6 -22 -5 -22 13 2 10 14 26 33 34 43 9 9 16 22 16 27 0 6 4 10 10 10 5 0
9 -5 7 -12 -1 -6 17 -17 41 -24 24 -7 42 -9 42 -3 0 5 -7 9 -16 9 -8 0 -12 5
-9 10 3 6 0 10 -8 10 -14 0 -32 28 -23 37 12 12 61 9 77 -5 19 -17 52 -26 44
-12 -3 5 -2 10 2 13 5 2 2 2 -5 1 -7 -2 -15 3 -18 11 -7 17 6 41 15 29 10 -14
51 -35 51 -26 0 4 -6 14 -12 21 -11 11 -10 12 1 6 9 -5 12 -3 9 5 -5 15 59 83
71 75 8 -4 19 16 27 48 1 4 3 10 4 15 1 4 2 9 2 12 0 3 23 5 51 5 51 0 51 0
63 40 8 27 16 39 27 37 8 -1 19 3 23 9 4 7 3 9 -3 6 -6 -4 -14 0 -17 9 -8 21
-8 24 5 24 5 0 7 -4 4 -10 -3 -5 0 -10 9 -10 8 0 17 -6 19 -12 3 -7 6 -4 6 7
1 14 4 16 12 8 8 -8 20 -8 34 -3 13 5 26 6 29 3 3 -4 6 -4 7 -2 0 2 3 24 5 49
3 25 10 50 16 57 5 7 7 16 4 22 -8 12 15 20 37 12 17 -6 17 -8 -2 -28 -21 -23
-30 -47 -18 -50 19 -7 27 -1 27 17 0 12 6 20 13 19 30 -4 41 1 30 12 -9 9 -8
18 4 35 17 26 35 23 27 -4 -5 -15 -4 -15 6 1 6 9 8 27 5 38 -5 15 -4 19 4 15
6 -4 11 -2 11 4 0 6 5 8 10 5 6 -3 10 -1 10 4 0 6 7 11 15 11 18 0 65 43 65
60 0 5 4 10 10 10 5 0 9 3 9 7 -3 19 2 25 14 14 20 -16 16 14 -14 87 -12 29
-11 32 2 32 17 0 69 -57 69 -76 0 -14 -1 -14 -16 0 -26 27 -34 18 -16 -18 9
-19 20 -32 25 -29 4 2 5 8 2 13 -3 5 3 11 14 15 30 9 34 34 9 55 l-23 19 37
-3 c39 -3 40 1 9 38 -16 19 -15 19 12 1 27 -17 27 -17 27 5 0 18 3 20 14 11
10 -9 18 -7 34 6 21 18 21 40 1 112 -6 22 15 23 39 1 21 -19 23 -20 29 -4 4
10 2 19 -5 22 -7 2 -10 8 -6 13 3 5 1 9 -4 9 -5 0 -8 10 -8 22 1 13 0 28 -3
33 -9 17 -10 35 -1 35 9 0 40 -62 40 -80 0 -6 5 -20 11 -31 8 -16 13 -18 25
-8 13 10 18 6 15 -13 -2 -16 16 -7 37 17 13 15 17 27 11 31 -6 3 -9 17 -6 30
2 15 -2 25 -12 29 -8 3 -13 3 -9 0 3 -4 2 -20 -4 -37 -8 -21 -13 -26 -19 -17
-4 7 -5 17 -3 21 3 4 1 8 -3 8 -12 0 -15 48 -4 67 7 13 12 11 35 -13 22 -24
26 -26 26 -10 0 12 5 16 15 12 8 -3 14 -2 14 2 -5 30 4 52 24 58 12 5 25 7 30
6 15 -4 6 16 -10 23 -16 6 -16 8 -3 18 8 7 17 21 18 32 2 11 8 23 14 26 11 7
10 19 -3 35 -6 8 -4 14 6 18 10 3 14 14 11 30 -4 21 19 57 31 49 1 -2 9 -3 16
-3 6 1 0 11 -15 23 -22 18 -25 25 -15 38 7 9 20 15 30 13 15 -2 16 0 6 12 -10
12 -9 13 6 8 12 -5 16 -4 12 3 -4 6 0 13 8 17 8 3 15 13 16 23 0 16 1 16 9 -2
7 -15 9 -10 8 22 -2 38 -3 41 -18 28 -14 -13 -18 -11 -34 16 l-17 30 33 31
c18 18 38 31 43 30 6 -1 18 12 27 28 10 17 23 29 29 28 7 -2 13 12 15 32 2 19
5 44 6 55 2 11 -3 20 -11 20 -17 0 -29 31 -23 61 3 18 7 20 17 11 6 -6 10 -21
8 -32 -4 -20 -4 -20 11 -1 9 11 16 26 16 34 0 7 5 10 10 7 6 -3 10 4 10 16 0
12 9 36 20 53 10 18 19 41 19 51 -1 11 2 30 6 42 5 16 3 25 -9 29 -14 5 -14 9
-2 26 8 11 12 26 9 33 -2 8 0 23 7 34 7 14 7 21 0 21 -5 0 -10 -4 -10 -9 0 -5
-7 -11 -15 -14 -11 -5 -12 -1 -5 19 13 33 13 32 -9 43 -15 8 -20 7 -25 -5 -4
-12 -2 -15 9 -10 9 3 15 0 15 -10 0 -8 -5 -12 -10 -9 -7 4 -9 -3 -6 -19 4 -21
1 -26 -17 -27 -20 0 -20 -1 -4 -8 18 -6 18 -8 2 -21 -20 -17 -52 -75 -35 -65
11 7 29 -10 30 -27 0 -13 -38 -9 -43 5 -3 7 -6 5 -6 -5 -1 -10 6 -18 15 -18 8
0 13 -4 9 -10 -3 -5 -11 -7 -18 -4 -18 7 -42 -23 -57 -71 -7 -22 -17 -46 -23
-52 -5 -7 -7 -13 -3 -13 14 0 -24 -58 -48 -74 -17 -10 -26 -26 -26 -42 0 -17
-9 -30 -30 -42 -17 -9 -33 -25 -36 -35 -3 -9 -9 -15 -14 -12 -10 6 -18 -3 -55
-54 -14 -20 -21 -39 -16 -44 4 -4 3 -24 -4 -45 -9 -25 -10 -41 -3 -49 7 -9 0
-18 -24 -33 -18 -11 -41 -20 -50 -20 -10 0 -18 -6 -18 -12 0 -10 -2 -10 -9 0
-4 7 -18 14 -30 15 -14 1 -20 6 -16 15 3 7 5 16 5 19 0 3 6 0 14 -6 12 -10 17
-7 29 15 9 17 17 23 21 15 4 -6 12 -11 19 -11 6 0 2 7 -10 15 -12 9 -20 21
-17 29 3 7 -2 19 -10 26 -9 7 -14 16 -11 20 3 4 -2 13 -10 20 -21 17 -19 30 4
30 37 0 48 10 43 37 -5 27 14 47 33 35 5 -4 22 -9 36 -10 20 -2 28 2 32 20 5
20 5 21 -7 6 -13 -17 -61 -14 -50 3 3 5 -2 9 -10 9 -16 0 -21 12 -9 23 3 4 12
2 20 -4 9 -9 13 -8 13 0 0 6 -4 11 -8 11 -5 0 -14 11 -20 25 -10 21 -9 27 4
32 12 5 13 7 3 14 -8 4 -11 11 -7 14 3 3 13 -1 22 -10 18 -18 23 -1 7 24 -12
19 -3 41 18 41 9 0 25 14 34 30 10 16 25 30 33 30 8 0 13 6 11 13 -1 6 7 12
17 12 11 0 21 6 24 13 2 6 12 12 23 12 10 0 19 5 19 10 0 6 -3 10 -8 10 -12 0
-62 50 -62 63 0 8 4 7 10 -3 5 -8 11 -12 14 -9 11 10 14 89 5 95 -5 3 -7 10
-3 15 3 5 10 7 15 4 5 -4 9 1 9 9 0 9 6 16 13 16 6 1 2 6 -11 13 -22 13 -22
13 13 30 19 9 35 12 35 7 0 -5 6 -7 13 -4 14 5 18 -7 19 -64 2 -34 18 -23 18
12 0 10 10 27 22 37 11 11 16 19 9 19 -7 0 -9 5 -4 13 8 12 12 60 5 52 -6 -6
-32 22 -32 34 0 6 7 11 16 11 8 0 12 5 9 10 -4 6 -1 9 6 8 7 -2 14 7 15 18 0
12 4 26 8 32 3 6 0 13 -6 15 -10 4 -10 6 0 6 7 1 10 6 7 11 -3 6 -1 10 4 10 6
0 11 9 11 20 0 11 -6 20 -14 20 -10 0 -14 10 -12 33 1 19 6 31 14 30 6 -2 13
3 13 10 6 47 5 94 -1 106 -4 7 -4 29 0 47 4 19 4 36 0 39 -5 3 -6 15 -2 27 4
16 2 19 -9 14 -9 -5 -9 -3 2 6 12 11 13 17 3 37 -10 19 -10 28 0 45 8 12 13
49 12 86 -1 56 -6 71 -34 113 -19 26 -38 47 -44 47 -10 0 -6 59 5 77 4 5 -5
31 -18 56 -29 54 -30 68 -10 107 l15 29 -33 -2 c-28 -2 -32 1 -35 26 -2 17
-17 41 -35 57 -28 25 -30 30 -17 45 12 14 12 16 -1 13 -15 -3 -19 2 -19 23 0
6 8 8 18 5 9 -4 2 5 -15 19 -18 15 -33 35 -33 46 0 11 -4 18 -9 15 -4 -3 -7 5
-6 17 1 12 -5 47 -15 77 -10 30 -16 58 -13 63 2 4 -1 7 -6 7 -6 0 -11 9 -11
19 0 11 -6 21 -12 24 -10 3 -10 9 0 26 7 11 8 21 4 21 -5 0 -9 6 -10 13 -1 6
-4 25 -8 41 -5 22 -4 27 6 21 9 -5 11 -4 6 4 -4 6 -11 9 -16 6 -5 -3 -11 -1
-15 5 -4 6 -12 7 -18 3 -22 -14 -37 -11 -48 8 -5 11 -7 24 -4 29 4 6 -8 24
-24 41 -17 17 -36 40 -42 51 -6 11 -17 17 -25 14 -8 -3 -14 0 -14 6 0 7 -7 31
-16 54 -12 33 -20 41 -35 37 -16 -4 -19 0 -19 25 0 17 -4 33 -9 36 -10 7 15
66 28 66 4 0 8 6 8 14 0 15 -13 16 -37 1 -10 -5 -9 -1 3 13 19 20 18 21 -21
46 -22 14 -42 31 -45 38 -3 8 -6 6 -6 -6 -1 -15 -4 -16 -16 -6 -8 7 -15 21
-15 31 0 9 -7 24 -15 32 -8 8 -12 16 -10 19 2 2 -5 5 -17 5 -12 1 -25 8 -29
15 -5 7 -9 9 -9 3 0 -5 -8 6 -18 25 -9 19 -23 35 -31 35 -8 0 -18 13 -22 28
-8 29 -60 87 -79 87 -5 0 -10 5 -10 11 0 15 -30 38 -50 39 -8 0 -22 15 -29 33
-8 17 -36 53 -63 78 -26 26 -48 52 -48 58 0 6 -5 11 -11 11 -6 0 -17 7 -26 16
-9 9 -22 12 -32 8 -9 -4 -26 -6 -39 -5 -13 0 -21 -3 -18 -8 3 -5 0 -14 -8 -20
-10 -9 -15 -8 -20 4 -3 8 -1 15 4 15 6 0 10 7 10 15 0 8 -3 15 -7 15 -5 0 -17
14 -28 30 -11 16 -24 30 -28 30 -10 0 -81 52 -85 63 -2 4 -9 7 -16 7 -7 0 -21
8 -32 18 -26 24 -74 37 -74 20 -1 -7 -10 -2 -21 12 -12 14 -26 26 -33 26 -6 1
-16 2 -23 3 -14 1 -5 41 10 41 16 0 -23 39 -56 55 -17 8 -33 15 -38 15 -12 0
2 -38 17 -44 8 -3 14 -13 14 -21 0 -9 -4 -13 -10 -10 -6 3 -7 -1 -4 -9 8 -22
-6 -20 -68 7 -48 22 -128 94 -128 116 0 5 -7 11 -15 15 -20 7 -19 1 3 -20 16
-17 16 -18 -3 -10 -11 4 -29 10 -40 12 -11 2 -32 6 -47 10 -15 3 -44 21 -65
40 -21 18 -43 34 -50 34 -24 0 -64 -24 -59 -36 5 -13 -19 -37 -47 -47 -17 -6
-16 -9 7 -31 14 -13 26 -25 26 -28 0 -3 -16 -4 -35 -3 -19 2 -35 -2 -35 -7 0
-6 -7 -7 -16 -4 -9 4 -26 0 -38 -7 -17 -11 -26 -12 -51 -1 -16 7 -25 13 -18
14 6 0 9 9 6 21 -4 14 -12 19 -24 16 -11 -3 -19 -2 -19 2 0 4 -17 5 -37 4 -33
-4 -35 -2 -18 8 11 6 29 20 40 29 11 10 28 18 38 19 55 4 53 2 31 36 -16 24
-17 24 -43 7 -29 -20 -87 -20 -105 -1 -8 9 -8 10 2 5 12 -7 17 15 12 58 -1 11
3 16 9 11 6 -3 14 1 17 10 4 9 12 14 19 11 8 -3 16 1 19 9 3 8 14 13 25 12 18
-1 18 -3 5 -29 -17 -33 -9 -39 54 -43 54 -4 59 -6 37 -14 -19 -8 -19 -8 4 -20
13 -7 21 -8 17 -3 -10 16 14 26 53 23 43 -2 47 -6 31 -26 -13 -16 -3 -20 24
-9 9 3 14 10 11 14 -7 11 21 20 73 22 61 2 61 15 1 14 -59 -1 -70 7 -31 23 29
12 96 10 109 -2 4 -5 -1 -5 -12 -2 -17 5 -17 5 -4 -4 28 -18 79 -23 79 -7 0
19 19 25 64 21 26 -3 36 0 33 8 -2 7 -23 13 -46 13 -28 1 -47 8 -57 20 -9 11
-13 14 -10 8 3 -7 -1 -14 -9 -18 -8 -3 -15 0 -15 6 0 6 -3 8 -6 5 -4 -3 -16
-1 -28 6 -11 7 -33 12 -48 12 -29 1 -37 -10 -15 -18 6 -3 1 -6 -13 -7 -14 -1
-35 -3 -47 -6 -12 -2 -25 1 -28 6 -3 5 -12 7 -20 4 -8 -3 -21 6 -31 21 -9 14
-19 23 -22 20 -3 -2 -11 0 -18 6 -7 6 -30 12 -51 13 -21 1 -44 5 -51 10 -7 4
-12 3 -12 -2 0 -12 -39 -4 -59 12 -16 13 -51 18 -111 17 -31 0 -49 5 -57 16
-11 14 -13 14 -18 1 -5 -13 -13 -10 -38 16 -38 36 -63 41 -80 15z m282 -80
c-15 -9 -32 -2 -24 11 3 5 13 6 21 3 12 -4 13 -8 3 -14z m-89 -79 c0 -6 -11
-10 -25 -10 -14 0 -25 4 -25 8 0 4 11 9 25 10 14 1 25 -3 25 -8z m17 -22 c-3
-8 -6 -5 -6 6 -1 11 2 17 5 13 3 -3 4 -12 1 -19z m24 -31 c-11 -29 -15 -30
-46 -18 -19 7 -18 8 5 21 14 7 29 20 34 29 14 23 18 -1 7 -32z m-71 -37 c13
-8 13 -10 -2 -10 -9 0 -20 5 -23 10 -8 13 5 13 25 0z m-15 -216 c21 -3 46 -8
56 -10 11 -2 29 -6 42 -9 103 -22 167 -42 167 -52 0 -7 13 -12 33 -12 29 1 89
-16 157 -44 14 -5 31 -11 39 -13 7 -1 21 -13 30 -25 32 -44 61 -70 71 -64 6 3
10 2 10 -3 0 -10 32 -23 65 -25 11 -1 19 -6 18 -12 -1 -5 10 -11 24 -11 13 -1
35 -11 47 -23 12 -12 27 -21 33 -21 6 0 13 -7 17 -15 3 -8 12 -15 19 -15 22 0
54 -33 51 -52 -1 -10 4 -16 15 -15 23 1 81 -23 81 -34 0 -5 5 -9 10 -9 6 0 22
-11 35 -24 17 -17 31 -23 46 -19 14 4 20 2 16 -4 -7 -11 69 -84 78 -75 7 7 83
-74 121 -130 23 -33 26 -43 16 -58 -15 -25 5 -32 35 -12 21 13 24 12 45 -25
13 -21 22 -41 21 -44 -1 -4 7 -15 17 -24 11 -10 20 -24 20 -32 0 -7 5 -13 11
-13 5 0 8 -4 4 -9 -3 -5 -1 -12 5 -16 5 -3 10 -14 10 -23 0 -9 25 -53 57 -97
31 -44 65 -99 75 -123 11 -24 26 -46 34 -49 8 -3 14 -15 14 -27 0 -30 22 -76
37 -76 6 0 10 -9 8 -20 -2 -11 1 -22 6 -25 5 -4 7 -10 4 -15 -3 -5 -1 -11 5
-15 6 -4 8 -11 5 -16 -4 -5 -2 -9 3 -9 6 0 16 -22 23 -50 7 -27 16 -47 20 -45
3 3 7 -5 7 -18 2 -37 8 -58 19 -65 11 -8 35 -72 26 -72 -3 0 0 -7 7 -15 6 -8
10 -18 7 -22 -3 -4 0 -19 5 -33 6 -14 12 -38 14 -55 3 -26 6 -40 19 -87 2 -5
3 -9 5 -10 1 -2 4 -19 7 -38 2 -19 8 -37 11 -40 10 -7 8 -32 -2 -49 -6 -8 -5
-12 0 -8 5 3 9 -7 8 -21 -1 -15 3 -33 9 -39 5 -7 7 -22 4 -33 -3 -11 -1 -18 4
-14 5 3 10 -1 10 -8 5 -50 5 -76 -2 -100 -4 -14 -5 -29 -2 -32 6 -6 12 -102
16 -242 1 -46 7 -78 17 -89 8 -11 10 -16 3 -12 -23 14 -40 -41 -23 -73 8 -15
7 -18 -2 -15 -9 4 -13 -6 -14 -32 -3 -68 -8 -113 -14 -113 -8 0 -6 -103 3
-117 4 -6 3 -14 -3 -18 -5 -3 -10 3 -10 14 0 11 -5 23 -12 27 -8 5 -9 2 -5 -9
3 -9 2 -19 -2 -22 -5 -3 -7 -13 -4 -23 2 -10 -1 -31 -8 -47 -15 -37 -18 -67
-7 -81 5 -8 0 -14 -14 -18 -14 -4 -19 -9 -12 -13 11 -8 34 -47 34 -57 0 -18
-21 -2 -26 19 -6 25 -28 33 -39 15 -4 -6 -1 -18 6 -26 16 -19 21 -47 8 -38 -5
3 -7 9 -4 14 3 5 0 12 -6 16 -7 4 -10 3 -7 -2 3 -5 2 -19 -3 -31 -9 -26 -39
-21 -39 6 0 9 -9 27 -20 41 -11 14 -20 29 -20 33 0 18 -46 46 -73 47 -16 0
-25 4 -22 10 10 16 12 81 3 87 -16 9 -19 -3 -9 -29 7 -19 6 -31 -5 -46 -9 -13
-10 -23 -4 -27 5 -3 9 -16 8 -28 0 -12 0 -26 2 -32 1 -5 2 -17 1 -25 -1 -12
-3 -13 -10 -1 -7 11 -11 9 -21 -9 -8 -15 -8 -20 -1 -16 16 10 13 0 -5 -19 -12
-11 -13 -19 -5 -29 6 -7 7 -16 3 -20 -4 -4 -7 -11 -8 -14 0 -4 -5 -18 -11 -32
-6 -14 -9 -40 -8 -57 1 -22 -3 -33 -12 -33 -7 0 -13 -4 -13 -10 0 -5 -6 -9
-12 -7 -8 1 -14 -11 -16 -30 -2 -22 -7 -30 -17 -27 -7 3 -16 1 -20 -5 -3 -6
-1 -11 4 -11 17 0 13 -19 -9 -37 -22 -19 -27 -39 -7 -27 8 5 8 3 -2 -9 -7 -9
-11 -25 -9 -35 3 -10 -2 -24 -11 -32 -8 -8 -16 -13 -16 -10 0 3 -8 -2 -17 -10
-11 -10 -13 -19 -6 -27 6 -8 4 -14 -7 -21 -11 -6 -18 -26 -20 -58 -5 -66 -12
-93 -27 -112 -8 -10 -9 -13 -1 -9 13 8 12 -18 -2 -30 -4 -4 -5 -2 -1 5 17 29
-11 9 -34 -25 -14 -20 -34 -45 -44 -55 -11 -10 -16 -18 -10 -18 5 0 -11 -12
-36 -27 -27 -16 -39 -28 -30 -31 7 -3 19 2 25 11 11 15 13 15 28 -1 16 -15 17
-15 17 11 0 15 4 27 9 27 5 0 33 24 62 53 29 28 50 46 45 40 -15 -26 -15 -52
0 -46 8 3 12 8 10 11 -3 3 -1 11 5 19 6 7 8 13 4 13 -4 0 -1 8 6 17 10 11 10
14 2 9 -8 -4 -13 -1 -13 8 0 9 4 16 9 16 5 0 17 20 28 45 10 25 21 46 26 46 4
1 12 2 18 3 7 0 17 10 23 21 6 11 13 22 16 25 3 3 11 17 19 33 8 15 18 27 23
27 8 0 1 97 -8 112 -4 6 16 58 26 68 3 3 5 10 6 15 0 6 10 33 23 60 12 28 24
61 26 75 1 14 3 28 4 32 0 5 4 7 9 7 26 -4 31 3 25 33 -4 20 -2 29 4 25 6 -4
8 3 5 18 -3 17 0 25 10 25 19 0 100 -69 93 -80 -2 -4 7 -7 21 -7 30 -1 39 -7
29 -23 -4 -7 -18 -10 -30 -8 -21 4 -22 1 -22 -48 0 -45 -6 -60 -37 -103 -20
-27 -32 -52 -27 -55 5 -4 11 0 14 6 3 7 4 3 4 -9 -1 -12 -5 -19 -9 -17 -4 3
-8 0 -8 -5 0 -6 5 -11 11 -11 16 0 -14 -27 -37 -33 -16 -4 -16 -5 4 -6 24 -1
27 -8 12 -31 -5 -8 -12 -11 -17 -7 -4 5 -1 12 7 17 8 6 10 10 5 10 -26 0 -67
-76 -58 -110 4 -16 0 -23 -16 -27 -11 -3 -19 -9 -16 -13 2 -4 -9 -22 -25 -40
-17 -19 -30 -39 -30 -46 0 -7 -8 -18 -17 -23 -10 -6 -14 -11 -9 -11 5 0 -1 -9
-14 -20 -13 -11 -20 -20 -16 -20 4 0 -15 -22 -41 -48 -26 -27 -64 -67 -83 -90
-19 -22 -37 -39 -40 -38 -3 2 -18 -13 -35 -33 -16 -20 -53 -57 -83 -81 -30
-25 -65 -56 -78 -70 -13 -14 -24 -22 -24 -18 0 4 -11 -3 -25 -16 -29 -27 -98
-63 -135 -70 -14 -3 -51 -30 -83 -61 -33 -30 -64 -55 -70 -56 -40 -3 -72 -12
-96 -28 -29 -21 -96 -37 -86 -21 3 6 -1 10 -10 10 -9 0 -15 -6 -14 -12 3 -28
-2 -36 -28 -41 -16 -3 -37 -14 -48 -25 -12 -10 -31 -17 -43 -15 -12 1 -22 -2
-22 -8 0 -6 -7 -8 -15 -5 -9 3 -23 2 -33 -3 -38 -21 -75 -27 -202 -35 -20 -1
-40 -5 -46 -9 -6 -3 -24 -3 -40 1 -16 4 -45 7 -64 7 -28 0 -35 -5 -41 -25 -4
-14 -8 -20 -8 -15 -1 6 -5 4 -10 -4 -7 -10 -13 -11 -30 -2 -12 7 -26 9 -31 6
-5 -3 -28 -8 -52 -11 -24 -4 -45 -10 -48 -15 -5 -8 -55 -3 -70 6 -4 2 -15 -2
-26 -9 -11 -9 -26 -11 -39 -6 -22 8 -30 10 -45 10 -6 0 -16 11 -22 25 -12 26
-35 29 -30 4 1 -9 -3 -7 -12 4 -11 14 -21 16 -42 10 -16 -4 -35 -6 -41 -5 -7
2 -13 -1 -13 -7 0 -5 -15 -7 -32 -4 -18 4 -40 6 -48 5 -79 -4 -154 1 -161 10
-3 4 -17 9 -32 10 -15 1 -27 5 -27 8 0 3 -12 5 -27 6 -90 3 -138 15 -155 39
-4 5 -8 7 -8 2 0 -4 -13 -1 -30 8 -16 9 -30 13 -30 9 0 -4 -7 0 -17 7 -9 8
-18 13 -20 11 -2 -1 -11 2 -21 8 -13 8 -11 9 13 5 25 -5 52 -11 63 -14 1 -1 3
-1 5 0 1 0 16 -5 32 -11 29 -11 105 -21 153 -21 16 1 21 -3 16 -12 -5 -8 -2
-7 9 2 12 9 17 10 17 2 0 -7 15 -11 40 -9 22 1 40 6 40 11 0 4 6 5 12 0 7 -4
25 -8 40 -9 14 -1 38 -10 52 -20 15 -9 29 -14 33 -10 3 3 1 6 -5 6 -7 0 -12 4
-12 10 0 6 9 6 26 0 29 -11 123 -10 130 2 3 5 13 4 22 0 25 -13 154 -13 168
-1 8 6 19 9 26 6 7 -3 4 -6 -7 -6 -15 -1 -17 -3 -6 -10 7 -5 29 -5 50 0 20 4
55 7 79 6 23 -1 42 3 43 8 0 6 3 4 6 -2 6 -15 43 -18 43 -3 0 5 18 8 40 6 25
-3 43 1 51 10 6 8 16 14 21 14 6 0 5 -7 -2 -15 -9 -10 -9 -15 -1 -15 6 0 11 3
11 8 1 4 12 21 26 37 l26 30 -16 -32 c-9 -18 -15 -33 -14 -34 32 -9 40 -6 35
12 -3 10 -1 17 3 14 5 -3 10 -2 13 2 2 5 3 3 1 -3 -3 -14 38 -5 48 10 5 7 8 7
8 -2 0 -7 5 -10 10 -7 6 3 8 16 4 29 -4 16 -1 23 10 23 9 0 16 -9 16 -19 0
-16 3 -17 23 -7 12 7 27 19 33 28 8 10 29 16 58 16 49 1 68 11 48 24 -10 6 -9
11 4 22 15 12 17 12 9 0 -6 -11 -5 -12 6 -5 8 5 28 9 44 10 17 0 43 6 60 13
23 10 26 14 15 21 -13 9 -13 10 0 11 8 1 20 2 25 4 6 1 16 3 24 3 8 1 11 5 8
9 -4 3 -2 12 3 18 8 9 6 14 -5 19 -8 3 -15 2 -15 -3 0 -5 -14 -11 -31 -15 -17
-3 -28 -10 -25 -15 3 -5 -1 -12 -10 -15 -8 -3 -13 -2 -10 3 7 11 -34 2 -51
-12 -7 -5 -13 -6 -13 -1 0 5 -4 4 -8 -3 -4 -6 -20 -14 -35 -17 -14 -2 -32 -8
-39 -12 -7 -4 -28 -9 -48 -10 -19 -1 -35 -3 -35 -4 0 -1 -8 -3 -18 -5 -10 -2
-35 -13 -57 -24 -22 -11 -70 -23 -107 -27 -37 -4 -70 -10 -73 -13 -11 -14 -89
-28 -100 -17 -7 7 -10 6 -10 -2 0 -8 -27 -10 -92 -8 -51 2 -93 5 -93 6 0 1
-12 4 -27 6 -16 3 -32 -2 -42 -11 -9 -9 -16 -13 -16 -8 0 4 -43 8 -95 7 -52 0
-95 3 -95 8 0 5 -5 6 -10 3 -6 -3 -10 1 -10 10 0 9 -6 15 -12 12 -7 -2 -25 0
-40 4 -16 4 -28 4 -28 -2 0 -8 -22 -7 -135 7 -27 3 -70 8 -93 10 -24 2 -66 10
-93 18 -27 8 -49 12 -49 9 0 -3 -8 1 -17 8 -15 12 -16 12 -8 -1 6 -12 5 -13
-5 -3 -9 9 -19 9 -32 2 -14 -8 -30 -6 -59 5 -21 9 -39 13 -39 11 0 -3 -9 -1
-19 4 -10 6 -34 13 -52 15 -46 7 -104 22 -118 30 -6 4 -11 2 -11 -4 0 -7 -6
-8 -19 -1 -10 6 -31 13 -47 16 -67 12 -78 15 -84 25 -3 5 -15 11 -25 13 -11 2
-28 7 -37 10 -28 11 -53 18 -56 17 -1 0 -16 7 -32 15 -17 9 -30 13 -30 9 0 -3
-20 6 -44 20 -25 14 -52 26 -60 26 -9 0 -16 4 -16 10 0 5 -3 9 -8 7 -10 -3
-52 40 -45 47 3 3 -7 11 -23 18 -15 7 -39 23 -53 36 -13 12 -28 22 -33 22 -5
0 -6 5 -3 10 3 5 1 10 -5 10 -7 0 -21 12 -32 26 -11 14 -26 23 -34 20 -7 -3
-16 4 -19 15 -4 10 -15 19 -26 19 -11 0 -39 19 -63 43 -23 23 -65 63 -92 89
-56 53 -78 78 -68 78 4 0 -3 9 -16 20 -12 11 -27 17 -31 14 -5 -3 -9 -1 -9 5
0 6 -11 20 -24 33 -13 13 -31 35 -41 50 -17 27 -17 28 3 28 21 0 36 -25 26
-43 -5 -8 -2 -7 7 1 18 17 30 15 23 -3 -10 -26 8 -16 42 22 29 33 34 35 40 19
7 -18 -10 -39 -38 -48 -5 -2 -6 -11 -3 -20 4 -9 13 -14 21 -11 8 3 14 0 14 -7
0 -8 4 -9 13 -3 15 12 54 27 44 17 -4 -4 0 -18 9 -32 9 -13 13 -33 11 -44 -6
-23 19 -36 36 -19 8 8 6 11 -8 11 -18 0 -18 0 0 14 10 7 26 12 34 11 9 -2 20
-4 24 -4 5 -1 5 -5 2 -11 -4 -6 7 -10 24 -10 35 0 38 -5 17 -26 -8 -8 -22 -11
-33 -8 -12 5 -8 -3 12 -25 28 -29 84 -53 70 -30 -4 5 -11 6 -17 3 -7 -4 -8 -2
-4 4 10 17 47 15 40 -2 -3 -7 2 -16 11 -20 9 -3 18 0 21 9 4 8 9 13 13 11 3
-2 15 0 26 5 17 6 17 8 3 8 -10 1 -18 6 -18 12 0 5 -5 7 -12 3 -6 -4 -8 -3 -5
3 7 11 -69 84 -78 75 -3 -3 -5 0 -5 6 0 7 -4 12 -10 12 -15 0 -50 33 -50 47 0
7 -6 13 -14 13 -8 0 -20 17 -27 38 -15 47 -46 70 -98 74 -8 1 -19 14 -25 30
-6 15 -15 28 -21 28 -15 0 -32 32 -30 57 1 18 -1 20 -17 12 -14 -7 -20 -6 -24
6 -3 8 -12 15 -19 15 -15 0 -32 19 -37 40 -2 8 -12 19 -23 25 -11 6 -20 17
-21 25 0 8 -10 36 -23 61 -12 25 -23 63 -25 85 -3 35 -6 39 -30 37 -19 -1 -26
3 -26 15 0 10 -14 32 -30 51 -17 18 -31 44 -32 57 -1 13 -9 24 -16 24 -17 0
-8 49 11 65 7 6 12 15 12 20 -1 19 -30 55 -44 55 -8 0 -11 7 -8 19 3 12 -3 27
-14 37 -11 10 -17 24 -15 31 3 7 0 18 -7 25 -15 17 -20 38 -8 38 6 0 3 16 -5
35 -8 19 -11 35 -8 35 4 0 2 6 -4 13 -5 6 -9 46 -9 87 0 47 -4 75 -12 78 -23
8 -42 34 -32 46 11 13 23 208 12 201 -4 -2 -8 2 -8 10 0 8 4 15 9 15 4 0 8 7
8 15 0 8 -5 14 -11 12 -15 -3 -17 136 -2 155 5 7 10 27 11 43 1 17 7 45 13 62
6 18 8 37 4 43 -3 5 -1 10 6 10 9 0 9 3 0 14 -6 7 -9 20 -7 27 3 8 7 28 10 44
3 17 8 46 11 65 4 19 13 40 21 46 9 7 12 19 7 29 -5 14 -3 16 7 10 10 -6 11
-4 4 6 -12 20 -11 32 6 50 9 9 19 12 26 7 7 -5 17 -1 25 9 12 16 12 17 -2 6
-9 -7 -19 -10 -23 -6 -13 13 -38 12 -33 -2 4 -8 -3 -12 -20 -12 -22 0 -24 3
-18 26 4 14 9 33 10 41 2 8 4 17 5 20 1 3 2 8 1 13 0 4 3 7 9 7 6 0 9 3 8 8
-1 4 2 19 6 35 9 31 32 35 62 11 18 -14 18 -15 -4 -4 -22 11 -23 10 -12 -10 7
-13 17 -19 26 -16 9 3 12 1 9 -4 -3 -6 1 -10 9 -10 22 0 31 20 41 88 2 13 9
29 15 37 7 8 9 15 6 15 -4 0 5 12 19 26 25 25 25 27 9 51 -15 23 -15 27 -1 35
9 4 14 17 12 28 -3 15 2 20 18 20 16 0 19 3 8 9 -7 5 -11 13 -7 19 3 6 2 13
-3 17 -6 3 -8 12 -5 20 4 8 10 12 16 9 5 -3 8 2 6 13 -1 11 9 34 25 52 15 18
27 30 27 26 0 -4 8 1 17 10 13 14 14 21 5 36 -7 11 -8 20 -2 24 6 3 10 14 10
24 0 10 6 30 13 43 10 20 17 23 44 17 27 -5 32 -3 36 17 2 13 -1 28 -6 33 -8
8 -6 11 7 11 12 0 16 5 11 19 -4 13 2 25 18 38 14 10 28 29 32 42 4 12 9 20
12 17 3 -3 14 6 25 19 11 14 24 23 29 20 14 -9 11 19 -3 34 -10 11 -10 13 0 7
6 -4 12 -2 12 4 0 6 5 8 12 4 8 -5 9 -2 4 12 -4 10 -4 15 0 12 3 -4 17 5 30
20 21 25 23 25 25 7 1 -11 1 -23 0 -27 0 -5 4 -8 10 -8 6 0 8 7 5 16 -3 8 -2
12 4 9 6 -4 17 1 26 10 12 12 13 19 5 29 -13 15 -4 49 10 40 5 -3 7 -10 4 -15
-4 -5 1 -9 10 -9 9 0 14 4 11 8 -2 4 -1 14 5 22 6 10 9 11 9 3 0 -7 9 -13 20
-13 13 0 20 7 20 20 0 14 -7 20 -22 20 -24 0 -15 14 10 16 46 3 53 5 47 14 -9
14 15 52 29 47 7 -3 18 4 25 14 6 11 15 18 20 15 10 -7 73 32 67 42 -11 18 76
87 106 85 10 -1 18 4 18 10 0 7 8 17 19 22 10 6 38 21 62 34 24 14 50 26 57
27 8 1 21 9 31 18 9 8 33 17 54 19 24 2 43 11 52 24 8 11 27 24 42 28 15 3 47
16 72 27 40 18 45 18 53 4 12 -22 34 -20 59 5 11 11 23 18 26 16 2 -3 24 3 48
14 24 11 54 17 67 15 12 -2 37 2 55 9 17 7 33 11 36 9 2 -3 30 -6 62 -8 55 -3
57 -3 70 27 7 16 14 24 16 18 3 -7 20 -14 39 -16 19 -2 35 -4 35 -5 0 -8 73
-4 84 4 11 8 13 8 7 -1 -4 -7 -3 -13 3 -13 5 0 13 5 16 10 4 7 13 7 26 0 19
-10 25 -3 20 24 -1 5 4 4 13 -3 14 -12 59 -11 71 1 7 7 45 -2 45 -11 0 -3 17
-7 38 -8 20 0 54 -3 75 -6 20 -3 39 -2 42 2 3 6 110 7 110 1 0 -1 11 -4 25 -6
13 -2 27 -9 31 -15 5 -8 9 -7 15 2 5 8 18 14 29 14 11 0 20 7 20 15 1 21 15
41 25 35 4 -2 25 -7 45 -11z m-2097 -643 c11 -7 11 -9 -1 -14 -9 -3 -18 1 -21
9 -6 16 2 18 22 5z m3764 -496 c64 -106 132 -241 168 -330 18 -44 36 -89 40
-100 19 -46 62 -181 65 -205 2 -14 8 -38 14 -53 6 -16 11 -39 11 -53 0 -13 3
-24 8 -24 4 0 7 -15 7 -32 1 -56 9 -102 18 -115 6 -8 6 -18 -1 -26 -7 -8 -6
-18 4 -31 7 -10 11 -23 8 -28 -3 -5 -2 -14 3 -21 10 -14 9 -35 -2 -61 -4 -10
-4 -21 2 -25 12 -7 13 -41 1 -41 -4 0 -8 3 -9 8 0 4 -3 16 -5 27 -3 11 -6 36
-8 55 -2 19 -7 55 -11 80 -3 25 -8 59 -10 75 -6 54 -17 110 -23 119 -3 5 -6
19 -8 30 -19 126 -33 178 -54 196 -11 10 -20 27 -20 39 0 22 -35 134 -51 163
-5 10 -9 25 -9 33 0 8 -4 15 -8 15 -4 0 -8 9 -9 20 -1 11 -9 27 -18 36 -9 9
-14 21 -12 27 2 6 -6 21 -18 32 -11 12 -29 42 -40 68 -10 26 -23 47 -27 47 -4
0 -8 6 -8 14 0 8 -5 16 -10 18 -6 2 -11 18 -13 36 -1 17 -5 32 -8 32 -3 0 -18
24 -33 53 l-27 52 25 -30 c15 -16 45 -61 68 -100z m-4329 -351 c-3 -8 1 -14 8
-14 10 0 10 -3 2 -11 -13 -13 -36 -3 -28 12 6 9 -9 14 -30 9 -5 -1 -1 8 9 19
14 16 22 18 32 10 7 -6 10 -17 7 -25z m31 -70 c3 -8 2 -12 -4 -9 -6 3 -10 10
-10 16 0 14 7 11 14 -7z m4652 -749 c-3 -8 0 -15 7 -16 9 0 9 -2 -1 -6 -6 -2
-9 -10 -5 -16 11 -19 3 -269 -12 -352 -2 -16 -6 -39 -7 -50 -2 -11 -6 -23 -11
-26 -4 -3 -9 -37 -11 -75 -5 -85 -15 -145 -28 -161 -5 -7 -7 -17 -3 -23 3 -5
2 -10 -2 -10 -5 0 -9 -8 -10 -17 -2 -30 -10 -67 -18 -87 -8 -19 -9 -19 -15 0
-4 10 -3 22 1 25 5 3 11 30 13 60 2 30 5 56 6 59 2 3 4 10 5 15 6 44 18 92 24
100 4 6 8 21 9 34 0 13 9 57 18 97 14 57 15 79 6 98 -6 13 -8 27 -4 31 3 3 5
62 4 129 -2 95 1 126 12 135 7 6 12 25 11 41 -1 17 2 30 7 30 6 0 8 -7 4 -15z
m-89 -457 c-3 -8 -6 -5 -6 6 -1 11 2 17 5 13 3 -3 4 -12 1 -19z m-37 -459
c-22 -60 -35 -78 -24 -34 7 31 32 85 38 85 3 0 -4 -23 -14 -51z m-32 -94 c-13
-28 -31 -35 -21 -7 5 14 21 31 30 32 2 0 -3 -11 -9 -25z m-4503 -91 c12 -5 14
-9 4 -14 -14 -9 -39 -2 -39 11 0 11 12 11 35 3z m5 -70 c0 -8 5 -14 11 -14 5
0 8 -4 5 -9 -3 -5 3 -20 14 -33 11 -14 16 -29 12 -33 -4 -5 1 -5 10 -2 12 4
15 2 12 -8 -9 -23 -29 -7 -54 43 -24 49 -33 85 -18 76 4 -3 8 -12 8 -20z
m5105 6 c-3 -5 -12 -10 -18 -10 -7 0 -6 4 3 10 19 12 23 12 15 0z m-4985 -94
c0 -2 -7 -7 -16 -10 -8 -3 -12 -2 -9 4 6 10 25 14 25 6z m-620 -16 c0 -5 -2
-10 -4 -10 -3 0 -8 5 -11 10 -3 6 -1 10 4 10 6 0 11 -4 11 -10z m583 -34 c3 3
11 -4 17 -16 6 -12 9 -24 6 -27 -14 -14 17 -31 47 -26 32 5 32 5 13 -16 -23
-25 -22 -25 38 -5 26 9 50 13 53 10 9 -8 0 -16 -26 -21 -11 -3 -31 -7 -43 -10
-12 -2 -25 -10 -29 -17 -7 -10 -12 -9 -26 5 -11 10 -13 17 -5 17 7 0 12 5 12
11 0 6 -6 9 -14 6 -12 -5 -49 34 -51 53 0 3 -7 16 -14 30 -13 22 -13 24 1 13
8 -7 17 -10 21 -7z m-538 -126 c3 -5 1 -10 -4 -10 -6 0 -11 5 -11 10 0 6 2 10
4 10 3 0 8 -4 11 -10z m675 -25 c0 -17 -2 -18 -25 -9 -13 5 -14 8 -3 15 19 13
28 11 28 -6z m380 -204 c0 -4 -3 -11 -7 -14 -8 -9 -34 13 -28 24 6 9 35 1 35
-10z m2510 -584 c0 -8 -7 -14 -15 -14 -11 0 -12 4 -4 14 6 7 13 13 15 13 2 0
4 -6 4 -13z m-1722 -82 c33 -5 40 -15 19 -26 -9 -6 -17 -17 -17 -25 0 -8 -5
-12 -11 -9 -5 4 -8 12 -6 18 4 13 -16 37 -32 37 -5 0 -13 5 -17 12 -5 8 0 9
17 4 13 -4 35 -9 47 -11z m1028 -809 c11 -12 11 -16 2 -23 -18 -11 -39 -13
-33 -3 3 5 0 12 -6 16 -8 4 -7 9 2 15 18 11 18 11 35 -5z m354 4 c0 -5 -2 -10
-4 -10 -3 0 -8 5 -11 10 -3 6 -1 10 4 10 6 0 11 -4 11 -10z"/>
<path d="M2643 5697 c-13 -5 -25 -18 -28 -28 -4 -10 -21 -23 -39 -28 -68 -18
-99 -81 -40 -81 21 0 24 3 15 14 -9 11 -9 14 1 13 36 -1 49 5 58 28 5 14 15
25 23 25 10 0 42 59 34 66 -1 1 -12 -3 -24 -9z"/>
<path d="M3580 5583 c0 -7 -9 -10 -22 -7 -13 2 -35 2 -50 -2 -24 -5 -26 -8
-16 -24 8 -12 16 -16 23 -10 18 15 21 15 48 -3 15 -9 27 -13 27 -7 0 7 6 8 18
1 10 -6 28 -7 40 -4 13 3 22 1 22 -6 0 -6 7 -11 15 -11 18 0 49 -45 40 -60 -3
-5 -2 -10 2 -10 5 0 13 10 18 22 12 28 45 37 45 13 0 -9 4 -14 9 -10 6 3 15
-4 21 -16 7 -11 14 -18 17 -15 8 8 63 -23 63 -35 0 -6 5 -7 10 -4 6 3 10 1 10
-4 0 -6 6 -11 13 -11 8 0 13 9 11 23 -1 12 -3 30 -3 39 -1 11 -8 17 -18 16
-44 -3 -65 3 -70 22 -3 11 -9 18 -13 15 -4 -3 -11 3 -14 12 -6 15 -8 15 -16 3
-8 -13 -10 -12 -10 3 0 20 -20 23 -39 5 -10 -11 -14 -9 -22 5 -6 9 -14 15 -20
12 -5 -4 -9 -1 -9 5 0 6 -5 8 -12 4 -8 -5 -9 -2 -5 9 9 24 -12 32 -28 11 -13
-17 -14 -17 -15 -2 0 25 -21 33 -36 14 -11 -16 -13 -16 -23 1 -6 10 -11 13
-11 6z"/>
<path d="M2330 5436 c0 -14 29 -31 38 -21 3 2 -3 7 -12 11 -9 3 -13 10 -10 15
3 5 0 9 -5 9 -6 0 -11 -6 -11 -14z"/>
<path d="M4305 5430 c-3 -5 -1 -18 4 -28 6 -11 7 -22 4 -26 -3 -3 1 -6 10 -6
8 0 24 -18 34 -40 10 -22 23 -38 30 -35 7 2 15 -5 18 -16 4 -13 12 -18 21 -15
16 6 23 1 85 -56 22 -21 47 -38 55 -38 15 0 47 -28 213 -190 88 -86 211 -236
211 -258 0 -24 19 -11 25 18 4 16 10 32 15 35 13 8 0 35 -17 35 -8 0 -12 4 -9
9 3 5 -1 14 -9 21 -8 7 -13 16 -10 20 3 5 1 11 -5 15 -7 4 -7 13 0 26 10 17 7
20 -20 25 -16 4 -30 10 -30 15 0 5 3 8 8 7 7 -3 12 5 12 23 0 5 -4 8 -10 4 -5
-3 -18 0 -29 7 -15 9 -17 15 -9 25 8 10 7 13 -5 13 -8 0 -20 7 -27 15 -7 9
-21 13 -31 10 -14 -5 -17 -2 -13 9 4 11 0 16 -11 16 -11 0 -15 6 -11 18 7 21
-8 49 -18 33 -4 -6 -11 -11 -15 -11 -14 0 -28 45 -21 65 10 27 4 35 -26 35
-16 0 -23 -4 -18 -11 3 -6 -5 -4 -19 6 -14 9 -24 22 -22 28 3 7 -4 23 -15 37
-16 20 -22 22 -29 11 -15 -23 -42 -5 -37 24 5 26 0 29 -47 26 -16 -1 -26 3
-23 7 3 5 -7 15 -22 23 -15 8 -30 19 -35 26 -4 6 -15 10 -25 8 -9 -1 -38 8
-64 21 -54 27 -55 27 -63 14z"/>
<path d="M2275 5410 c6 -9 -7 -14 -27 -11 -4 0 -12 -8 -18 -19 -6 -11 -15 -18
-20 -15 -5 3 -18 1 -28 -4 -13 -7 -22 -7 -31 2 -9 9 -10 4 -5 -21 5 -25 3 -32
-10 -32 -9 0 -16 -4 -16 -10 0 -5 -3 -9 -7 -9 -20 3 -33 -2 -33 -13 0 -7 -12
-22 -27 -35 -32 -25 -10 -33 23 -8 10 8 27 15 37 15 9 0 17 4 17 9 0 9 39 22
51 18 4 -1 17 7 29 18 12 11 24 18 27 16 2 -2 20 5 39 15 24 13 32 23 28 34
-4 8 -9 25 -11 38 -3 12 -10 22 -15 22 -5 0 -6 -4 -3 -10z"/>
<path d="M4029 5373 c-23 -6 -22 -73 2 -73 10 0 19 -6 21 -14 5 -23 40 8 43
38 4 34 -28 57 -66 49z"/>
<path d="M3825 5289 c-4 -6 -5 -12 -2 -15 2 -3 7 2 10 11 7 17 1 20 -8 4z"/>
<path d="M3857 5282 c-2 -4 0 -22 5 -39 7 -25 13 -32 30 -30 15 1 26 -6 36
-25 18 -37 29 -35 27 5 -1 18 -7 31 -14 30 -6 -2 -11 4 -11 12 0 8 -5 15 -11
15 -5 0 -8 4 -5 8 3 4 -8 13 -25 19 -16 6 -31 8 -32 5z"/>
<path d="M1555 5120 c-3 -5 1 -10 9 -10 9 0 16 5 16 10 0 6 -4 10 -9 10 -6 0
-13 -4 -16 -10z"/>
<path d="M1501 5088 c5 -10 12 -18 15 -18 3 0 2 5 -2 11 -3 6 0 15 7 20 10 6
8 8 -8 6 -17 -1 -20 -5 -12 -19z"/>
<path d="M1464 5038 c-4 -7 -4 -10 1 -6 4 4 14 3 21 -3 8 -7 14 -6 20 2 4 8 3
9 -4 5 -7 -4 -12 -2 -12 3 0 15 -17 14 -26 -1z"/>
<path d="M1407 4995 c-4 -8 -2 -17 2 -20 5 -2 11 4 14 15 6 23 -8 27 -16 5z"/>
<path d="M5020 4686 c0 -7 20 -48 62 -130 12 -23 78 -203 78 -214 0 -4 7 -15
16 -25 8 -11 13 -25 10 -33 -3 -7 -1 -16 4 -19 5 -3 7 -14 5 -25 -2 -12 0 -18
6 -15 5 4 12 -2 16 -12 3 -10 13 -26 22 -37 9 -10 17 -27 17 -37 1 -10 2 -26
3 -35 1 -10 7 -14 15 -11 10 4 13 1 9 -9 -3 -8 3 -21 13 -28 15 -12 16 -18 7
-39 -10 -20 -9 -28 3 -37 16 -14 20 -45 4 -35 -6 4 -8 10 -5 14 7 12 -41 54
-56 49 -9 -3 -7 -8 5 -19 38 -32 46 -41 46 -50 0 -13 -28 -11 -32 3 -2 6 -11
9 -18 6 -10 -3 -5 -10 16 -21 40 -21 51 -47 28 -64 -14 -10 -14 -13 -3 -13 12
0 12 -2 -1 -10 -14 -9 -7 -14 13 -11 12 2 -14 -43 -29 -52 -21 -12 -17 -27 9
-36 26 -10 46 -2 26 10 -7 4 -11 10 -9 13 3 2 14 -2 25 -10 16 -12 17 -16 6
-23 -8 -5 -15 -25 -16 -45 -1 -31 1 -34 14 -23 12 9 12 7 -1 -8 -11 -14 -14
-25 -8 -35 5 -9 5 -19 -1 -26 -12 -14 -9 -46 5 -56 5 -3 11 -13 12 -22 2 -12
-4 -14 -27 -9 -36 7 -37 -1 -1 -34 15 -15 20 -22 12 -18 -13 8 -13 6 -2 -7 12
-15 11 -75 -2 -97 -2 -3 0 -15 4 -26 4 -10 1 -30 -7 -45 -18 -34 -16 -48 7
-62 11 -7 20 -18 20 -24 0 -6 20 -33 45 -60 25 -27 45 -53 45 -58 0 -5 12 -20
26 -33 28 -25 62 -27 55 -2 -2 8 -4 23 -5 34 0 11 -11 24 -23 30 -28 12 -29
25 -5 51 18 18 18 19 -6 29 -14 6 -26 18 -28 28 -2 13 2 15 13 8 18 -10 53 -3
53 11 0 5 6 6 13 2 9 -5 9 -4 1 5 -6 7 -30 12 -53 13 -29 0 -41 5 -41 15 0 8
9 17 19 20 12 3 17 11 14 19 -3 8 -9 12 -13 9 -10 -6 -24 14 -16 22 3 4 14 -1
23 -9 23 -20 61 -29 69 -17 3 6 -8 15 -25 22 -20 7 -29 17 -26 25 3 8 -3 16
-15 19 -24 6 -26 19 -5 27 21 8 19 26 -2 27 -10 1 2 7 27 14 43 12 44 12 18
20 -28 7 -62 48 -51 59 12 11 12 40 2 53 -8 9 -6 11 10 8 27 -5 36 11 14 24
-48 27 -49 29 -30 43 18 13 15 48 -4 48 -14 0 -11 30 4 30 7 1 4 6 -6 15 -24
17 -48 86 -36 101 5 6 4 16 -4 24 -10 10 -9 12 6 7 21 -8 23 9 1 17 -10 4 -14
14 -11 26 3 13 0 20 -9 20 -8 0 -14 5 -14 11 0 5 -4 7 -10 4 -5 -3 -10 -2 -10
4 0 5 8 15 18 20 9 6 12 11 5 11 -6 0 -10 9 -8 20 2 11 0 18 -4 15 -8 -4 -21
27 -20 50 0 5 -7 12 -16 15 -16 6 -16 7 1 24 16 17 16 19 1 28 -9 5 -17 14
-17 21 0 9 2 9 8 0 5 -8 13 -9 22 -3 12 7 12 10 -3 16 -10 4 -16 13 -13 20 3
8 1 14 -5 14 -6 0 -8 4 -5 9 3 5 -4 11 -15 14 -17 5 -19 9 -10 26 9 15 7 23
-5 35 -14 14 -14 17 -1 22 23 9 30 36 9 33 -38 -3 -42 0 -32 27 13 33 13 37
-3 31 -8 -3 -20 -1 -28 3 -11 7 -10 10 4 16 21 8 12 24 -14 24 -11 0 -18 4
-14 10 7 11 -25 50 -42 50 -7 0 -13 4 -13 8 0 5 -11 15 -25 22 -13 7 -22 17
-19 22 11 17 -18 68 -38 68 -10 0 -17 4 -14 8 2 4 -4 19 -15 32 -10 14 -19 21
-19 16z m307 -902 c-3 -3 -12 -4 -19 -1 -8 3 -5 6 6 6 11 1 17 -2 13 -5z"/>
<path d="M932 4229 c2 -8 16 -16 32 -19 16 -3 31 -11 34 -18 2 -8 -2 -10 -14
-5 -16 6 -17 5 -4 -9 8 -9 18 -14 23 -11 4 2 7 -2 7 -9 0 -10 3 -9 10 2 6 9 5
17 -2 21 -7 4 -7 9 1 13 17 11 13 26 -5 19 -9 -3 -19 -1 -23 5 -3 6 -19 14
-34 17 -21 6 -27 4 -25 -6z"/>
<path d="M984 4084 c12 -12 20 -13 33 -4 16 10 16 11 1 6 -10 -3 -20 -1 -23 4
-4 6 -11 10 -16 10 -6 0 -3 -7 5 -16z"/>
<path d="M945 4040 c4 -6 11 -8 16 -5 14 9 11 15 -7 15 -8 0 -12 -5 -9 -10z"/>
<path d="M5281 4034 c0 -11 3 -14 6 -6 3 7 2 16 -1 19 -3 4 -6 -2 -5 -13z"/>
<path d="M5506 3801 c-4 -5 -2 -12 3 -15 5 -4 12 -2 15 3 4 5 2 12 -3 15 -5 4
-12 2 -15 -3z"/>
<path d="M5200 3720 c0 -5 5 -10 10 -10 6 0 10 5 10 10 0 6 -4 10 -10 10 -5 0
-10 -4 -10 -10z"/>
<path d="M5470 3670 c0 -5 5 -10 11 -10 5 0 7 5 4 10 -3 6 -8 10 -11 10 -2 0
-4 -4 -4 -10z"/>
<path d="M5157 3493 c-5 -12 -2 -24 16 -63 13 -29 14 -37 2 -45 -16 -13 -1
-45 21 -45 8 0 13 4 9 9 -3 6 0 13 7 18 20 12 15 37 -10 51 -18 10 -20 16 -12
32 7 14 6 23 -6 34 -17 18 -21 19 -27 9z"/>
<path d="M1484 3378 c-18 -53 -11 -67 20 -37 17 16 17 19 3 25 -9 3 -13 12
-10 20 3 8 3 14 0 14 -3 0 -9 -10 -13 -22z"/>
<path d="M1530 3350 c-11 -9 -20 -21 -20 -25 0 -4 -9 -14 -21 -23 -19 -16 -19
-19 -5 -52 8 -19 23 -47 33 -62 15 -22 22 -25 38 -16 11 6 25 17 31 24 12 15
7 64 -7 64 -5 0 -9 9 -9 20 0 11 5 20 10 20 6 0 10 7 10 15 0 8 -4 15 -10 15
-5 0 -10 5 -10 11 0 5 4 8 9 4 5 -3 12 -1 16 5 3 5 3 10 -2 11 -4 0 -16 2 -25
4 -9 2 -26 -5 -38 -15z"/>
<path d="M5513 2995 c-9 -25 4 -29 17 -6 7 15 7 21 0 21 -6 0 -13 -7 -17 -15z"/>
<path d="M5085 2937 c8 -13 12 -27 8 -30 -3 -4 -1 -7 5 -7 7 0 6 -9 -3 -26
-10 -20 -11 -31 -2 -45 12 -20 17 -19 21 4 1 8 8 22 15 30 10 13 9 22 -4 51
-10 20 -21 33 -26 30 -5 -3 -9 0 -9 5 0 6 -5 11 -10 11 -6 0 -4 -10 5 -23z"/>
<path d="M5005 2660 c-3 -5 3 -10 15 -10 12 0 18 5 15 10 -3 6 -10 10 -15 10
-5 0 -12 -4 -15 -10z"/>
<path d="M4987 2613 c-11 -22 -6 -63 8 -63 17 0 21 35 5 45 -6 4 -8 11 -5 16
4 5 4 9 1 9 -3 0 -7 -3 -9 -7z"/>
<path d="M4869 2455 c0 -6 -2 -18 -4 -27 -2 -10 0 -18 5 -18 13 0 21 33 10 44
-6 6 -10 6 -11 1z"/>
<path d="M4977 2431 c-3 -13 2 -21 14 -24 22 -6 25 9 5 28 -12 12 -15 12 -19
-4z"/>
<path d="M5320 2351 c-11 -21 -14 -69 -4 -58 7 6 24 77 18 77 -2 0 -8 -9 -14
-19z"/>
<path d="M4667 2063 c4 -9 2 -14 -3 -11 -10 7 -36 -17 -27 -25 3 -4 -6 -4 -21
-1 -21 3 -26 0 -26 -15 0 -11 6 -21 12 -23 25 -9 -8 -55 -42 -62 -27 -5 -31
-8 -20 -21 13 -15 35 -11 25 5 -3 5 4 7 15 5 18 -3 60 25 60 40 0 3 0 8 0 13
0 4 11 20 25 35 14 15 23 27 18 27 -4 0 1 6 11 13 17 12 16 14 -8 25 -22 10
-24 9 -19 -5z"/>
<path d="M5129 1954 c-55 -86 -67 -110 -68 -137 -1 -28 -1 -28 23 -10 24 18
47 66 54 112 2 14 8 33 13 44 19 35 2 28 -22 -9z"/>
<path d="M4567 1893 c-4 -3 -7 -15 -7 -26 0 -15 -5 -18 -23 -15 -18 4 -23 0
-25 -20 -2 -19 1 -22 11 -13 8 6 17 8 20 4 4 -3 7 -1 7 5 0 7 6 12 14 12 12 0
25 28 26 53 0 9 -14 9 -23 0z"/>
<path d="M4360 1841 c-6 -12 -29 -38 -51 -59 -27 -27 -38 -44 -33 -55 3 -10
10 -17 14 -17 4 0 7 -11 6 -24 -1 -23 -11 -24 -41 -7 -18 10 -54 8 -59 -4 -2
-6 16 -22 40 -35 42 -23 43 -25 26 -43 -17 -19 -16 -19 14 -4 17 9 35 13 39 9
4 -4 3 3 -4 15 -8 16 -8 24 1 29 7 5 8 3 3 -6 -5 -9 -4 -11 4 -6 9 6 9 11 1
21 -8 9 -7 14 4 18 8 3 13 17 11 36 -1 17 1 34 6 37 5 3 7 9 4 14 -3 5 10 16
30 24 31 13 36 20 33 43 -4 34 -32 42 -48 14z"/>
<path d="M1650 1780 c0 -5 5 -10 11 -10 5 0 7 5 4 10 -3 6 -8 10 -11 10 -2 0
-4 -4 -4 -10z"/>
<path d="M1700 1770 c-8 -11 -22 -20 -32 -20 -25 0 -30 -16 -11 -31 14 -12 16
-12 8 0 -5 10 -4 12 4 7 14 -9 43 12 36 24 -3 5 0 12 6 16 14 8 29 -14 22 -34
-5 -12 -2 -12 15 -3 21 11 26 8 23 -12 -1 -5 3 -6 9 -2 16 10 12 21 -15 33
-14 6 -25 18 -25 27 0 21 -23 19 -40 -5z"/>
<path d="M1790 1760 c0 -5 5 -10 10 -10 6 0 10 5 10 10 0 6 -4 10 -10 10 -5 0
-10 -4 -10 -10z"/>
<path d="M1745 1680 c4 -6 11 -8 16 -5 14 9 11 15 -7 15 -8 0 -12 -5 -9 -10z"/>
<path d="M1810 1680 c-9 -6 -10 -10 -3 -10 6 0 15 5 18 10 8 12 4 12 -15 0z"/>
<path d="M1890 1655 c-11 -13 -10 -14 4 -9 9 3 16 10 16 15 0 13 -6 11 -20 -6z"/>
<path d="M1799 1658 c-5 -18 -6 -38 -1 -34 7 8 12 36 6 36 -2 0 -4 -1 -5 -2z"/>
<path d="M1826 1643 c-6 -14 -5 -15 5 -6 7 7 10 15 7 18 -3 3 -9 -2 -12 -12z"/>
<path d="M4830 1645 c0 -8 2 -15 4 -15 2 0 6 7 10 15 3 8 1 15 -4 15 -6 0 -10
-7 -10 -15z"/>
<path d="M1895 1630 c-3 -5 -1 -10 4 -10 6 0 11 5 11 10 0 6 -2 10 -4 10 -3 0
-8 -4 -11 -10z"/>
<path d="M4205 1580 c-3 -5 1 -13 10 -16 22 -9 29 1 11 15 -10 8 -16 9 -21 1z"/>
<path d="M1926 1561 c19 -18 34 -19 34 0 0 6 -4 8 -9 4 -5 -3 -12 -1 -16 5 -3
5 -11 10 -17 10 -6 0 -3 -8 8 -19z"/>
<path d="M2978 1489 c-10 -10 -18 -21 -18 -24 0 -8 102 -57 129 -61 25 -4 25
-4 7 11 -11 8 -25 15 -30 15 -20 1 -59 37 -48 44 14 8 4 36 -12 35 -6 0 -19
-9 -28 -20z"/>
<path d="M4590 1480 c0 -5 7 -7 15 -4 8 4 15 8 15 10 0 2 -7 4 -15 4 -8 0 -15
-4 -15 -10z"/>
<path d="M4520 1472 c0 -7 -7 -9 -17 -5 -15 5 -16 3 -5 -8 9 -10 15 -10 24 -1
6 6 9 15 5 19 -4 3 -7 1 -7 -5z"/>
<path d="M4571 1464 c0 -11 3 -14 6 -6 3 7 2 16 -1 19 -3 4 -6 -2 -5 -13z"/>
<path d="M3070 1463 c0 -6 8 -17 18 -24 16 -13 16 -13 2 6 -8 11 -16 22 -17
24 -2 2 -3 0 -3 -6z"/>
<path d="M3863 1440 c-17 -10 -37 -27 -44 -37 -19 -26 -46 -35 -53 -18 -3 8
-15 19 -28 26 -23 12 -23 12 -4 -10 19 -21 19 -22 -2 -51 -34 -45 -29 -53 36
-50 4 1 7 10 6 20 0 11 2 18 4 15 3 -3 11 0 18 6 8 6 20 9 28 6 7 -3 23 1 34
8 10 8 23 11 28 7 5 -4 2 1 -5 11 -12 15 -12 17 1 12 9 -4 15 0 15 9 0 8 -4
13 -9 10 -11 -7 -10 3 3 28 15 28 8 30 -28 8z"/>
<path d="M4360 1420 c0 -5 5 -10 11 -10 5 0 7 5 4 10 -3 6 -8 10 -11 10 -2 0
-4 -4 -4 -10z"/>
<path d="M4435 1421 c-3 -5 -2 -12 3 -15 5 -3 9 1 9 9 0 17 -3 19 -12 6z"/>
<path d="M4340 1392 c0 -8 -6 -12 -12 -10 -16 6 -41 -19 -33 -31 3 -5 1 -12
-5 -16 -6 -4 -8 -10 -5 -15 3 -5 14 -2 25 7 16 14 17 20 7 32 -10 12 -8 14 10
9 27 -7 35 2 22 22 -7 12 -9 12 -9 2z"/>
<path d="M4388 1383 c7 -3 16 -2 19 1 4 3 -2 6 -13 5 -11 0 -14 -3 -6 -6z"/>
<path d="M2796 6261 c-3 -5 2 -15 12 -22 15 -12 16 -12 5 2 -7 9 -10 19 -6 22
3 4 4 7 0 7 -3 0 -8 -4 -11 -9z"/>
<path d="M2825 6261 c-3 -5 -2 -12 3 -15 5 -3 9 1 9 9 0 17 -3 19 -12 6z"/>
<path d="M2635 6251 c-3 -6 4 -9 15 -8 11 1 20 5 20 9 0 11 -28 10 -35 -1z"/>
<path d="M2731 6228 c-9 -23 -6 -36 4 -26 8 7 15 48 9 48 -3 0 -8 -10 -13 -22z"/>
<path d="M2890 6220 c-13 -8 -13 -10 2 -10 9 0 20 5 23 10 8 13 -5 13 -25 0z"/>
<path d="M4074 6186 c-18 -14 -18 -15 4 -13 12 1 22 7 22 14 0 16 -2 16 -26
-1z"/>
<path d="M4130 6180 c0 -5 5 -10 11 -10 5 0 7 5 4 10 -3 6 -8 10 -11 10 -2 0
-4 -4 -4 -10z"/>
<path d="M3841 6134 c0 -11 3 -14 6 -6 3 7 2 16 -1 19 -3 4 -6 -2 -5 -13z"/>
<path d="M4450 6119 c0 -5 5 -7 10 -4 6 3 10 8 10 11 0 2 -4 4 -10 4 -5 0 -10
-5 -10 -11z"/>
<path d="M3820 6089 c0 -17 -3 -19 -14 -10 -9 7 -17 8 -20 2 -3 -5 0 -12 6
-14 10 -4 10 -6 0 -6 -7 -1 -10 -6 -6 -12 5 -8 9 -8 14 1 6 9 13 9 29 1 17 -9
21 -9 19 1 -2 7 -7 16 -13 20 -6 5 -6 8 2 8 7 0 17 -8 22 -17 9 -15 10 -16 11
-2 0 15 -30 49 -43 49 -4 0 -7 -10 -7 -21z"/>
<path d="M4525 6100 c-3 -6 1 -7 9 -4 18 7 21 14 7 14 -6 0 -13 -4 -16 -10z"/>
<path d="M4345 6090 c3 -5 15 -10 26 -10 10 0 19 5 19 10 0 6 -12 10 -26 10
-14 0 -23 -4 -19 -10z"/>
<path d="M4536 6085 c-22 -9 -25 -13 -12 -18 9 -4 16 -11 16 -16 0 -7 -9 -7
-26 -1 -14 6 -31 7 -37 3 -12 -8 -17 -9 -39 -12 -7 -1 -2 -8 11 -15 12 -7 33
-11 46 -8 12 2 32 -1 42 -7 27 -14 43 4 36 41 l-6 29 42 -17 c23 -9 45 -14 48
-10 4 3 1 6 -6 6 -6 0 -23 8 -38 17 -33 22 -42 23 -77 8z"/>
<path d="M4340 6061 c0 -6 4 -13 10 -16 6 -3 7 1 4 9 -7 18 -14 21 -14 7z"/>
<path d="M4678 6053 c6 -2 12 -9 12 -14 0 -6 -4 -7 -10 -4 -5 3 -10 -1 -10 -9
0 -20 39 -21 66 -1 12 8 25 11 29 7 5 -4 5 -1 1 6 -5 9 -12 10 -19 3 -8 -6
-19 -5 -31 5 -11 8 -27 14 -35 13 -11 0 -12 -2 -3 -6z"/>
<path d="M3936 6025 c-3 -8 -1 -15 4 -15 6 0 10 7 10 15 0 8 -2 15 -4 15 -2 0
-6 -7 -10 -15z"/>
<path d="M4806 6029 c3 -5 14 -14 25 -19 15 -8 19 -7 19 3 0 8 -11 17 -25 19
-13 3 -22 1 -19 -3z"/>
<path d="M4785 6007 c4 -8 14 -18 23 -21 9 -3 27 -10 40 -16 12 -5 22 -7 22
-4 0 2 -10 9 -22 14 -13 5 -33 17 -46 26 -19 14 -22 15 -17 1z"/>
<path d="M4608 5993 c7 -3 16 -2 19 1 4 3 -2 6 -13 5 -11 0 -14 -3 -6 -6z"/>
<path d="M3990 5970 c0 -5 7 -7 15 -4 8 4 15 8 15 10 0 2 -7 4 -15 4 -8 0 -15
-4 -15 -10z"/>
<path d="M4811 5944 c13 -16 29 -19 29 -5 0 5 -9 11 -21 14 -16 4 -18 3 -8 -9z"/>
<path d="M4468 5943 c7 -3 16 -2 19 1 4 3 -2 6 -13 5 -11 0 -14 -3 -6 -6z"/>
<path d="M4500 5946 c0 -2 8 -10 18 -17 15 -13 16 -12 3 4 -13 16 -21 21 -21
13z"/>
<path d="M4940 5926 c0 -2 8 -10 18 -17 15 -13 16 -12 3 4 -13 16 -21 21 -21
13z"/>
<path d="M4985 5871 c3 -5 -1 -12 -7 -14 -10 -4 -10 -6 0 -6 6 -1 12 -8 12
-16 0 -8 9 -19 20 -25 11 -6 20 -7 20 -1 0 5 -7 12 -16 15 -10 4 -13 13 -9 25
3 12 0 21 -10 25 -9 3 -14 2 -10 -3z"/>
<path d="M5030 5850 c0 -5 4 -10 9 -10 6 0 13 5 16 10 3 6 -1 10 -9 10 -9 0
-16 -4 -16 -10z"/>
<path d="M5050 5805 c0 -16 16 -20 24 -6 3 5 -1 11 -9 15 -9 3 -15 0 -15 -9z"/>
<path d="M5195 5730 c3 -6 -1 -7 -9 -4 -9 3 -16 2 -16 -4 0 -5 13 -12 29 -14
26 -4 28 -2 17 14 -6 10 -14 18 -19 18 -4 0 -5 -4 -2 -10z"/>
<path d="M5250 5660 c8 -5 22 -10 30 -10 13 0 13 1 0 10 -8 5 -22 10 -30 10
-13 0 -13 -1 0 -10z"/>
<path d="M5350 5545 c7 -8 18 -15 25 -15 6 0 20 -9 30 -20 10 -11 22 -20 27
-20 11 0 -21 31 -54 53 -33 21 -45 22 -28 2z"/>
<path d="M5450 5480 c0 -5 5 -10 11 -10 5 0 7 5 4 10 -3 6 -8 10 -11 10 -2 0
-4 -4 -4 -10z"/>
<path d="M300 3974 c0 -8 5 -12 10 -9 6 4 8 11 5 16 -9 14 -15 11 -15 -7z"/>
<path d="M6562 3425 c4 -4 4 -13 -2 -19 -5 -7 -5 -18 -1 -25 6 -9 10 -5 13 13
3 15 0 29 -6 33 -6 3 -8 3 -4 -2z"/>
<path d="M6511 3320 c3 -30 -1 -40 -17 -40 -8 0 -12 -5 -8 -11 11 -18 14 -78
3 -84 -5 -4 -5 -14 2 -26 8 -15 7 -24 -3 -36 -12 -15 -11 -15 9 -3 19 12 20
16 8 34 -9 12 -11 24 -5 31 5 6 11 32 13 57 3 25 7 50 10 55 3 5 1 15 -4 23
-9 13 -10 13 -8 0z"/>
<path d="M6453 3153 c3 -13 0 -23 -5 -23 -6 0 -4 -8 3 -17 9 -10 9 -14 2 -10
-10 7 -33 -19 -33 -37 0 -17 27 -2 38 21 15 33 15 53 1 73 -9 12 -10 11 -6 -7z"/>
<path d="M6246 3125 c4 -8 8 -15 10 -15 2 0 4 7 4 15 0 8 -4 15 -10 15 -5 0
-7 -7 -4 -15z"/>
<path d="M6420 3004 c-8 -26 -17 -41 -22 -36 -5 5 -4 21 2 38 9 23 9 27 -1 16
-7 -6 -13 -34 -14 -61 0 -34 -6 -55 -19 -70 -11 -12 -14 -21 -8 -21 6 0 14 -9
17 -21 5 -15 10 -18 18 -10 23 23 29 10 7 -14 -15 -16 -19 -25 -10 -25 7 0 22
-8 33 -17 19 -16 20 -17 14 -1 -3 9 -1 19 6 22 9 3 9 5 -1 5 -10 1 -10 5 0 21
11 17 10 22 -2 30 -8 6 -23 8 -32 6 -24 -6 -31 9 -14 27 8 8 12 17 9 21 -4 3
-1 6 6 6 20 0 38 23 33 42 -2 10 -8 18 -13 18 -5 0 -3 16 5 35 8 19 11 35 7
35 -5 0 -14 -20 -21 -46z"/>
<path d="M6460 3009 c0 -5 5 -7 10 -4 6 3 10 8 10 11 0 2 -4 4 -10 4 -5 0 -10
-5 -10 -11z"/>
<path d="M6357 2839 c4 -13 8 -18 11 -10 2 7 -1 18 -6 23 -8 8 -9 4 -5 -13z"/>
<path d="M6203 2755 c-6 -14 -7 -25 -2 -25 11 0 22 25 17 39 -1 6 -8 -1 -15
-14z"/>
<path d="M6137 2753 c-4 -3 -7 -11 -7 -17 0 -6 5 -5 12 2 6 6 9 14 7 17 -3 3
-9 2 -12 -2z"/>
<path d="M6385 2690 c-3 -5 -1 -10 4 -10 6 0 11 5 11 10 0 6 -2 10 -4 10 -3 0
-8 -4 -11 -10z"/>
<path d="M6102 2648 c-7 -7 -12 -16 -12 -21 0 -5 7 -1 16 8 13 13 19 14 25 4
4 -7 5 -17 3 -21 -3 -4 0 -8 5 -8 14 0 14 6 1 31 -12 22 -21 24 -38 7z"/>
<path d="M6085 2520 c3 -5 1 -10 -4 -10 -6 0 -11 -10 -10 -22 0 -15 2 -18 6
-8 3 8 12 23 21 33 14 15 13 17 -2 17 -9 0 -14 -4 -11 -10z"/>
<path d="M6003 2425 c0 -8 4 -12 9 -9 4 3 8 9 8 15 0 5 -4 9 -8 9 -5 0 -9 -7
-9 -15z"/>
<path d="M6312 2350 c0 -14 2 -19 5 -12 2 6 2 18 0 25 -3 6 -5 1 -5 -13z"/>
<path d="M5900 2205 c-20 -24 -6 -28 15 -5 10 11 13 20 8 20 -6 0 -16 -7 -23
-15z"/>
<path d="M6248 2213 c7 -3 16 -2 19 1 4 3 -2 6 -13 5 -11 0 -14 -3 -6 -6z"/>
<path d="M6160 2155 c0 -8 2 -15 4 -15 2 0 6 7 10 15 3 8 1 15 -4 15 -6 0 -10
-7 -10 -15z"/>
<path d="M5865 2141 c3 -5 0 -11 -7 -13 -7 -3 -5 -7 6 -11 9 -4 15 -3 11 2 -3
5 0 11 7 13 7 3 5 7 -6 11 -9 4 -15 3 -11 -2z"/>
<path d="M5896 2125 c-3 -9 0 -15 9 -15 9 0 12 6 9 15 -4 8 -7 15 -9 15 -2 0
-5 -7 -9 -15z"/>
<path d="M6225 2130 c3 -5 8 -10 11 -10 2 0 4 5 4 10 0 6 -5 10 -11 10 -5 0
-7 -4 -4 -10z"/>
<path d="M255 2040 c-3 -5 5 -19 19 -31 14 -12 23 -25 21 -29 -6 -10 22 -33
35 -28 5 1 -1 15 -14 29 -13 14 -27 35 -30 47 -8 23 -21 28 -31 12z"/>
<path d="M360 1992 c0 -21 18 -58 44 -87 14 -16 26 -33 26 -36 0 -4 6 -9 14
-12 10 -4 12 0 9 14 -3 10 -9 19 -14 19 -5 0 -9 10 -9 21 0 18 2 19 15 9 25
-21 17 5 -9 27 -40 35 -76 56 -76 45z"/>
<path d="M590 1820 c8 -5 20 -10 25 -10 6 0 3 5 -5 10 -8 5 -19 10 -25 10 -5
0 -3 -5 5 -10z"/>
<path d="M685 1800 c3 -5 16 -10 28 -9 21 0 21 1 2 9 -28 12 -37 12 -30 0z"/>
<path d="M525 1790 c8 -13 95 -54 118 -56 17 -1 14 10 -4 12 -5 1 -13 2 -19 3
-5 0 -10 8 -10 17 0 9 -6 14 -12 11 -7 -2 -28 2 -46 9 -18 7 -30 9 -27 4z"/>
<path d="M466 1755 c9 -14 20 -25 24 -25 5 0 11 -9 15 -19 6 -18 60 -39 72
-28 16 17 -14 50 -64 72 -31 14 -57 25 -59 25 -3 0 3 -11 12 -25z"/>
<path d="M5861 1471 c-8 -5 -11 -17 -6 -30 3 -12 11 -19 16 -15 6 3 8 12 5 19
-3 8 0 15 7 18 7 2 7 6 1 10 -5 3 -16 2 -23 -2z"/>
<path d="M4635 490 c3 -5 8 -10 11 -10 2 0 4 5 4 10 0 6 -5 10 -11 10 -5 0 -7
-4 -4 -10z"/>
<path d="M4350 400 c0 -5 7 -7 15 -4 8 4 15 8 15 10 0 2 -7 4 -15 4 -8 0 -15
-4 -15 -10z"/>
</g>
</svg>
